<svg xmlns="http://www.w3.org/2000/svg" width="112" height="48" viewBox="0 0 112 48" fill="none">
<g id="Frame 2087327210">
<rect width="112" height="48" rx="6" fill="#F7F7FB"/>
<g id="Group 8">
<g id="Group 20">
<ellipse id="Oval" cx="34.5" cy="24.5" rx="11.5" ry="11.5" fill="#2DBF60"/>
<path id="Path 11" d="M31.4564 23.9255C30.9193 23.4974 30.1452 23.5966 29.7274 24.147C29.3096 24.6974 29.4064 25.4906 29.9435 25.9187L33.5744 28.8125L39.8881 22.3428C40.3693 21.8498 40.3693 21.0504 39.8881 20.5573C39.407 20.0642 38.6268 20.0642 38.1456 20.5573L33.3701 25.4507L31.4564 23.9255Z" fill="white"/>
</g>
<path id="СЧЕТ" fill-rule="evenodd" clip-rule="evenodd" d="M52.9719 28.5669C53.7312 29.2098 54.7771 29.5312 56.1094 29.5312C56.9387 29.5312 57.6817 29.3962 58.3386 29.126C58.9954 28.8558 59.5148 28.4644 59.8969 27.952C60.2789 27.4396 60.4792 26.8339 60.4978 26.1352C60.4978 26.0513 60.4675 25.9814 60.407 25.9255C60.3464 25.8696 60.2742 25.8417 60.1903 25.8417H58.2058C58.0754 25.8417 57.9775 25.8673 57.9123 25.9185C57.8471 25.9698 57.7958 26.0653 57.7586 26.205C57.6374 26.6523 57.4395 26.969 57.1646 27.1554C56.8897 27.3417 56.538 27.4349 56.1094 27.4349C55.0566 27.4349 54.5116 26.8479 54.4743 25.674C54.465 25.4038 54.4603 25.0078 54.4603 24.486C54.4603 23.9643 54.465 23.5776 54.4743 23.326C54.5116 22.1521 55.0566 21.5651 56.1094 21.5651C56.5473 21.5651 56.8991 21.6559 57.1646 21.8376C57.4301 22.0193 57.6281 22.3384 57.7586 22.795C57.8052 22.9347 57.8587 23.0302 57.9193 23.0815C57.9799 23.1327 58.0754 23.1583 58.2058 23.1583H60.1903C60.2742 23.1583 60.3464 23.1304 60.407 23.0745C60.4675 23.0186 60.4978 22.9487 60.4978 22.8648C60.4792 22.1661 60.2789 21.5604 59.8969 21.048C59.5148 20.5356 58.9954 20.1442 58.3386 19.874C57.6817 19.6038 56.9387 19.4688 56.1094 19.4688C54.7957 19.4688 53.7545 19.7972 52.9859 20.454C52.2172 21.1109 51.8096 22.0449 51.763 23.2562C51.7537 23.517 51.749 23.9363 51.749 24.514C51.749 25.0823 51.7537 25.4923 51.763 25.7438C51.8096 26.983 52.2125 27.924 52.9719 28.5669ZM67.2424 29.2928C67.3123 29.358 67.3985 29.3906 67.5009 29.3906H69.4016C69.5041 29.3906 69.5903 29.358 69.6602 29.2928C69.7301 29.2275 69.765 29.1437 69.765 29.0412V19.957C69.765 19.8545 69.7301 19.7706 69.6602 19.7054C69.5903 19.6402 69.5041 19.6076 69.4016 19.6076H67.5009C67.3985 19.6076 67.3123 19.6402 67.2424 19.7054C67.1725 19.7706 67.1376 19.8545 67.1376 19.957V23.423C67.1376 23.6932 66.9862 23.8935 66.6834 24.0239C66.3806 24.1544 66.0428 24.2196 65.6701 24.2196C65.1577 24.2196 64.7897 24.1148 64.5661 23.9051C64.3424 23.6955 64.2306 23.3624 64.2306 22.9059V19.957C64.2306 19.8545 64.1957 19.7706 64.1258 19.7054C64.0559 19.6402 63.9698 19.6076 63.8673 19.6076H61.9666C61.8641 19.6076 61.7779 19.6402 61.708 19.7054C61.6381 19.7706 61.6032 19.8545 61.6032 19.957V23.0316C61.6032 24.2429 61.892 25.1443 62.4697 25.7359C63.0474 26.3276 63.9325 26.6234 65.1251 26.6234C65.535 26.6234 65.9217 26.5791 66.2851 26.4906C66.6484 26.4021 66.9326 26.2693 67.1376 26.0923V29.0412C67.1376 29.1437 67.1725 29.2275 67.2424 29.2928ZM72.0968 29.3906C72.0036 29.3906 71.9221 29.3556 71.8522 29.2858C71.7823 29.2159 71.7474 29.1344 71.7474 29.0412V19.971C71.7474 19.8685 71.78 19.7823 71.8452 19.7124C71.9104 19.6425 71.9943 19.6076 72.0968 19.6076H78.6933C78.7958 19.6076 78.882 19.6425 78.9518 19.7124C79.0217 19.7823 79.0567 19.8685 79.0567 19.971V21.3546C79.0567 21.4571 79.0217 21.5409 78.9518 21.6061C78.882 21.6713 78.7958 21.704 78.6933 21.704H74.277V23.4789H78.3858C78.4883 23.4789 78.5745 23.5138 78.6444 23.5837C78.7143 23.6536 78.7492 23.7397 78.7492 23.8422V25.114C78.7492 25.2165 78.7143 25.3027 78.6444 25.3726C78.5745 25.4425 78.4883 25.4774 78.3858 25.4774H74.277V27.2942H78.8051C78.9076 27.2942 78.9938 27.3292 79.0637 27.399C79.1335 27.4689 79.1685 27.5551 79.1685 27.6576V29.0412C79.1685 29.1437 79.1335 29.2275 79.0637 29.2928C78.9938 29.358 78.9076 29.3906 78.8051 29.3906H72.0968ZM82.9777 29.2928C83.0475 29.358 83.1337 29.3906 83.2362 29.3906H85.1788C85.2813 29.3906 85.3675 29.358 85.4374 29.2928C85.5073 29.2275 85.5422 29.1437 85.5422 29.0412V21.8856H88.0019C88.1044 21.8856 88.1906 21.853 88.2605 21.7878C88.3304 21.7226 88.3653 21.6387 88.3653 21.5362V19.971C88.3653 19.8685 88.3304 19.7823 88.2605 19.7124C88.1906 19.6425 88.1044 19.6076 88.0019 19.6076H80.4131C80.3106 19.6076 80.2245 19.6425 80.1546 19.7124C80.0847 19.7823 80.0498 19.8685 80.0498 19.971V21.5362C80.0498 21.6387 80.0847 21.7226 80.1546 21.7878C80.2245 21.853 80.3106 21.8856 80.4131 21.8856H82.8728V29.0412C82.8728 29.1437 82.9078 29.2275 82.9777 29.2928Z" fill="#393939"/>
</g>
</g>
</svg>