<svg viewBox="0 0 125.278 156.598" xmlns="http://www.w3.org/2000/svg" xmlns:xlink="http://www.w3.org/1999/xlink" width="125.278351" height="156.597977" fill="none" customFrame="#000000">
	<g id="Group 7">
		<g id="Group 4">
			<path id="Vector 23" d="M17.6694 156.598C7.96261 156.598 0 148.711 0 138.929L0 17.8969C0 8.19012 7.88677 0.227509 17.6694 0.227509C27.3762 0.227509 35.3388 8.11428 35.3388 17.8969L35.3388 139.004C35.263 148.711 27.3762 156.598 17.6694 156.598L17.6694 156.598Z" fill="rgb(249,115,22)" fill-rule="evenodd" />
			<path id="Vector 24" d="M74.9243 96.0063L17.6694 96.0063C7.96261 96.0063 0 88.1195 0 78.3369C0 68.6301 7.88677 60.6675 17.6694 60.6675L74.9243 60.6675C83.1144 60.6675 90.0154 54.9041 90.0154 48.0032C90.0154 41.1781 83.1144 35.3388 74.9243 35.3388L17.6694 35.3388C7.96261 35.3388 0 27.452 0 17.6694C0 7.96261 7.88677 0 17.6694 0L74.9243 0C102.68 0 125.278 21.4611 125.278 47.9273C125.278 74.5452 102.68 96.0063 74.9243 96.0063Z" fill="rgb(15,27,45)" fill-rule="evenodd" />
			<path id="Vector 25" d="M104.576 156.598C99.5705 156.598 94.5654 154.475 91.077 150.304L40.268 89.7879C33.9738 82.3561 34.9596 71.2085 42.4672 64.9142C49.899 58.62 61.0466 59.6058 67.3409 67.1134L118.15 127.629C124.444 135.061 123.458 146.209 115.951 152.503C112.614 155.233 108.595 156.598 104.576 156.598L104.576 156.598Z" fill="rgb(15,27,45)" fill-rule="evenodd" />
			<path id="Vector 26" d="M107.609 65.7484C97.9021 65.7484 89.9395 57.8616 89.9395 48.079C89.9395 41.2539 83.0386 35.4146 74.8485 35.4146L17.6694 35.4146C7.96261 35.4146 0 27.5279 0 17.7452C0 8.03845 7.88677 0.0758362 17.6694 0.0758362L74.9243 0.0758362C102.68 0.0758362 125.278 21.537 125.278 48.0032C125.278 57.8616 117.316 65.7484 107.609 65.7484Z" fill="rgb(37,99,235)" fill-rule="evenodd" />
			<path id="Vector 26" d="M89.9395 48.079C89.9395 57.8616 97.9021 65.7484 107.609 65.7484C117.316 65.7484 125.278 57.8616 125.278 48.0032C125.278 21.537 102.68 0.0758362 74.9243 0.0758362L17.6694 0.0758362C7.88677 0.0758362 0 8.03845 0 17.7452C0 27.5279 7.96261 35.4146 17.6694 35.4146L74.8485 35.4146C83.0386 35.4146 89.9395 41.2539 89.9395 48.079ZM91.3456 51.761Q90.9395 49.9659 90.9395 48.079Q90.9395 47.2536 90.8212 46.4454Q90.5449 44.5573 89.6226 42.7636Q89.5629 42.6474 89.5008 42.5324Q88.2599 40.2319 86.1091 38.4222Q85.6828 38.0635 85.2342 37.7355Q83.3219 36.337 81.0034 35.4939Q79.7446 35.0361 78.4463 34.7725Q76.6837 34.4146 74.8485 34.4146L17.6694 34.4146Q15.8597 34.4146 14.1317 34.0391Q12.6367 33.7143 11.2027 33.1083Q9.81048 32.52 8.56556 31.7063Q7.136 30.7719 5.90071 29.5403Q4.64704 28.2903 3.69989 26.8402Q2.89832 25.6129 2.31627 24.2423Q1.73096 22.8639 1.40592 21.4267Q1 19.6319 1 17.7452Q1 15.9357 1.37548 14.2077Q1.70035 12.7126 2.3063 11.2786Q2.89453 9.8865 3.70812 8.64172Q4.6426 7.21198 5.87437 5.97655Q7.1244 4.72281 8.57465 3.77561Q9.80184 2.97411 11.1724 2.39211Q12.5507 1.80679 13.988 1.48175Q15.7828 1.07584 17.6694 1.07584L74.9243 1.07584Q80.9365 1.07584 86.64 2.40286Q90.4529 3.29001 94.1278 4.77025Q99.3214 6.86217 103.82 9.96272Q106.993 12.15 109.82 14.8393Q114.278 19.0792 117.422 24.1358Q119.098 26.8299 120.4 29.7557Q122.344 34.1234 123.314 38.6976Q124.278 43.2482 124.278 48.0032Q124.278 49.9827 123.839 51.8592Q123.517 53.2299 122.961 54.5457Q122.359 55.9704 121.522 57.24Q120.594 58.6481 119.377 59.8656Q118.136 61.1059 116.699 62.0453Q115.46 62.855 114.075 63.4411Q112.656 64.0415 111.177 64.3661Q109.435 64.7484 107.609 64.7484Q105.799 64.7484 104.071 64.3728Q102.576 64.048 101.142 63.4421Q99.7499 62.8538 98.505 62.04Q97.0755 61.1056 95.8402 59.874Q94.5865 58.624 93.6393 57.1737Q92.8378 55.9465 92.2558 54.576Q91.6706 53.1979 91.3456 51.761Z" fill="rgb(37,99,235)" fill-rule="evenodd" />
		</g>
	</g>
</svg>
