<svg xmlns="http://www.w3.org/2000/svg" width="112" height="48" viewBox="0 0 112 48" fill="none">
<g id="Frame 2087327206">
<rect width="112" height="48" rx="6" fill="#F7F7FB"/>
<g id="svg3409">
<path id="XMLID_1775_" d="M43.3945 39.9298V37.806C43.3945 36.9937 42.9045 36.4617 42.0634 36.4617C41.6428 36.4617 41.1855 36.6019 40.8711 37.0638C40.6261 36.6762 40.2749 36.4617 39.7482 36.4617C39.397 36.4617 39.0458 36.5689 38.7682 36.9566V36.5318H38.0332V39.9298H38.7682V38.0535C38.7682 37.4514 39.0826 37.1669 39.5726 37.1669C40.0626 37.1669 40.3076 37.4844 40.3076 38.0535V39.9298H41.0426V38.0535C41.0426 37.4514 41.3937 37.1669 41.847 37.1669C42.337 37.1669 42.5819 37.4844 42.5819 38.0535V39.9298H43.3945ZM54.2968 36.5318H53.1045V35.505H52.3695V36.5318H51.7039V37.204H52.3695V38.7627C52.3695 39.5421 52.6839 39.9999 53.5251 39.9999C53.8395 39.9999 54.1906 39.8926 54.4356 39.7524L54.2233 39.1133C54.011 39.2535 53.766 39.2906 53.5904 39.2906C53.2392 39.2906 53.1004 39.0761 53.1004 38.7256V37.204H54.2927V36.5318H54.2968ZM60.536 36.4576C60.1154 36.4576 59.8337 36.672 59.6581 36.9524V36.5277H58.9231V39.9256H59.6581V38.0122C59.6581 37.4473 59.9031 37.1256 60.3604 37.1256C60.4993 37.1256 60.6748 37.1628 60.8178 37.1957L61.0301 36.4865C60.8831 36.4576 60.6748 36.4576 60.536 36.4576ZM51.1078 36.8122C50.7566 36.5648 50.2666 36.4576 49.7399 36.4576C48.8987 36.4576 48.3393 36.8823 48.3393 37.5545C48.3393 38.1194 48.7599 38.4411 49.4949 38.5442L49.8461 38.5813C50.2299 38.6514 50.4422 38.7586 50.4422 38.9359C50.4422 39.1834 50.1605 39.3607 49.6705 39.3607C49.1805 39.3607 48.7926 39.1834 48.5476 39.006L48.1964 39.571C48.5802 39.8555 49.107 39.9957 49.6337 39.9957C50.6137 39.9957 51.1772 39.5339 51.1772 38.8988C51.1772 38.2968 50.7199 37.9792 50.0216 37.872L49.6705 37.8349C49.3561 37.7978 49.1111 37.7277 49.1111 37.5174C49.1111 37.27 49.3561 37.1298 49.744 37.1298C50.1645 37.1298 50.5851 37.3071 50.7975 37.4143L51.1078 36.8122ZM70.6625 36.4576C70.2419 36.4576 69.9602 36.672 69.7846 36.9524V36.5277H69.0496V39.9256H69.7846V38.0122C69.7846 37.4473 70.0296 37.1256 70.4869 37.1256C70.6257 37.1256 70.8013 37.1628 70.9442 37.1957L71.1565 36.4947C71.0136 36.4576 70.8054 36.4576 70.6625 36.4576ZM61.271 38.2308C61.271 39.2576 61.9733 39.9999 63.0595 39.9999C63.5494 39.9999 63.9006 39.8926 64.2518 39.6122L63.9006 39.0102C63.6189 39.2246 63.3412 39.3277 63.0227 39.3277C62.4266 39.3277 62.006 38.903 62.006 38.2308C62.006 37.5916 62.4266 37.1669 63.0227 37.1339C63.3371 37.1339 63.6189 37.2411 63.9006 37.4514L64.2518 36.8493C63.9006 36.5648 63.5494 36.4617 63.0595 36.4617C61.9733 36.4576 61.271 37.204 61.271 38.2308ZM68.0696 38.2308V36.5318H67.3346V36.9566C67.0896 36.639 66.7385 36.4617 66.2811 36.4617C65.3338 36.4617 64.5988 37.204 64.5988 38.2308C64.5988 39.2576 65.3338 39.9999 66.2811 39.9999C66.7711 39.9999 67.1223 39.8225 67.3346 39.505V39.9298H68.0696V38.2308ZM65.3706 38.2308C65.3706 37.6287 65.7544 37.1339 66.3873 37.1339C66.9835 37.1339 67.404 37.5957 67.404 38.2308C67.404 38.8328 66.9835 39.3277 66.3873 39.3277C65.7585 39.2906 65.3706 38.8287 65.3706 38.2308ZM56.5753 36.4576C55.5953 36.4576 54.893 37.1669 54.893 38.2267C54.893 39.2906 55.5953 39.9957 56.612 39.9957C57.102 39.9957 57.592 39.8555 57.9799 39.5339L57.6287 39.0019C57.347 39.2164 56.9958 39.3566 56.6488 39.3566C56.1914 39.3566 55.7382 39.1421 55.632 38.5442H58.1187C58.1187 38.437 58.1187 38.3669 58.1187 38.2597C58.1514 37.1669 57.5185 36.4576 56.5753 36.4576ZM56.5753 37.0968C57.0326 37.0968 57.347 37.3813 57.4164 37.9091H55.6647C55.7341 37.4514 56.0485 37.0968 56.5753 37.0968ZM74.8356 38.2308V35.1875H74.1006V36.9566C73.8556 36.639 73.5044 36.4617 73.0471 36.4617C72.0998 36.4617 71.3648 37.204 71.3648 38.2308C71.3648 39.2576 72.0998 39.9999 73.0471 39.9999C73.5371 39.9999 73.8882 39.8225 74.1006 39.505V39.9298H74.8356V38.2308ZM72.1365 38.2308C72.1365 37.6287 72.5204 37.1339 73.1533 37.1339C73.7494 37.1339 74.17 37.5957 74.17 38.2308C74.17 38.8328 73.7494 39.3277 73.1533 39.3277C72.5204 39.2906 72.1365 38.8287 72.1365 38.2308ZM47.5308 38.2308V36.5318H46.7959V36.9566C46.5509 36.639 46.1997 36.4617 45.7424 36.4617C44.7951 36.4617 44.0601 37.204 44.0601 38.2308C44.0601 39.2576 44.7951 39.9999 45.7424 39.9999C46.2324 39.9999 46.5835 39.8225 46.7959 39.505V39.9298H47.5308V38.2308ZM44.7992 38.2308C44.7992 37.6287 45.183 37.1339 45.8159 37.1339C46.412 37.1339 46.8326 37.5957 46.8326 38.2308C46.8326 38.8328 46.412 39.3277 45.8159 39.3277C45.183 39.2906 44.7992 38.8287 44.7992 38.2308Z" fill="black"/>
<g id="Group">
<path id="rect19" d="M61.9044 10.7256H50.8633V30.7585H61.9044V10.7256Z" fill="#FF5A00"/>
<path id="XMLID_330_" d="M51.598 20.7422C51.598 16.6721 53.4927 13.0598 56.3999 10.7258C54.2603 9.0268 51.5613 8 48.6172 8C41.6431 8 36 13.6989 36 20.7422C36 27.7855 41.6431 33.4844 48.6172 33.4844C51.5613 33.4844 54.2603 32.4576 56.3999 30.7587C53.4886 28.4577 51.598 24.8123 51.598 20.7422Z" fill="#EB001B"/>
<path id="path22" d="M76.8003 20.7422C76.8003 27.7855 71.1573 33.4844 64.1831 33.4844C61.239 33.4844 58.54 32.4576 56.4004 30.7587C59.3444 28.4205 61.2023 24.8123 61.2023 20.7422C61.2023 16.6721 59.3077 13.0598 56.4004 10.7258C58.5359 9.0268 61.235 8 64.179 8C71.1573 8 76.8003 13.7361 76.8003 20.7422Z" fill="#F79E1B"/>
</g>
</g>
</g>
</svg>