<svg xmlns="http://www.w3.org/2000/svg" width="112" height="48" viewBox="0 0 112 48" fill="none">
<g id="Frame 2087327207">
<rect width="112" height="48" rx="6" fill="#F7F7FB"/>
<g id="Group">
<path id="Vector" d="M65.3126 14C60.9182 14 56.991 16.2719 56.991 20.4685C56.991 25.2818 63.9558 25.6142 63.9558 28.0326C63.9558 29.0508 62.7861 29.9622 60.7875 29.9622C57.9519 29.9622 55.8325 28.6887 55.8325 28.6887L54.9255 32.9243C54.9255 32.9243 57.367 34 60.6085 34C65.413 34 69.194 31.6169 69.194 27.348C69.194 22.2616 62.2 21.9391 62.2 19.695C62.2 18.8973 63.1603 18.0236 65.1528 18.0236C67.4011 18.0236 69.2349 18.9498 69.2349 18.9498L70.1227 14.8595C70.1227 14.8595 68.1265 14 65.312 14H65.3126ZM25.1066 14.3089L25 14.9262C25 14.9262 26.8487 15.2636 28.514 15.937C30.6582 16.7088 30.8106 17.1586 31.1718 18.5537L35.1065 33.6812H40.3812L48.5071 14.3089H43.2447L38.0233 27.4802L35.8927 16.3152C35.6975 15.0374 34.7075 14.3083 33.4963 14.3083H25.1072L25.1066 14.3089ZM50.6234 14.3089L46.4954 33.6812H51.5137L55.6268 14.3089H50.6234ZM78.6116 14.3089C77.4016 14.3089 76.7604 14.9552 76.2902 16.0841L68.9381 33.6812H74.2005L75.2184 30.7481H81.6293L82.2482 33.6812H86.8917L82.8411 14.3089H78.6116ZM79.2961 19.543L80.8561 26.8123H76.6774L79.2968 19.543H79.2961Z" fill="#1434CB"/>
</g>
</g>
</svg>