<?xml version="1.0" encoding="UTF-8"?>
<svg version="1.1" xmlns="http://www.w3.org/2000/svg" width="256" height="256">
<path d="M0 0 C2.81838117 2.53942877 5.42796788 5.21412688 8 8 C8.99547518 9.00450444 9.9938652 10.00617266 11 11 C11.6084375 10.74605469 12.216875 10.49210937 12.84375 10.23046875 C39.27143399 -0.14628364 69.94136565 1.31925616 95.9375 12.1875 C109.03777551 17.96988011 119.84964085 25.84964085 130 36 C131.70509005 36.07634732 133.41063483 36.1470959 135.11694336 36.18798828 C149.60510793 36.60918478 160.58573905 41.41723312 170.75 51.8125 C179.35821249 64.0074677 181.25969238 76.42171865 180 91 C178.27404284 100.80798412 174.16628208 110.3171697 165.87109375 116.23046875 C162.03101805 119.93470504 161.91070581 122.67380484 161.4375 127.8125 C157.83918773 156.15905358 144.07276645 179.78338396 123 199 C122.01 199.66 121.02 200.32 120 201 C119.30522838 203.67798738 119.30522838 203.67798738 119 206.75 C117.86219106 214.3778711 115.88056417 218.92686615 109.8046875 223.7421875 C103.88536459 227.8677762 96.95818575 227.62493089 90 227 C86.22739612 225.97411649 83.25348627 224.16899084 80 222 C76.90726362 222.21158959 76.90726362 222.21158959 73.3125 222.875 C42.87927144 227.3304674 12.50257436 222.22503216 -12.73046875 204.03125 C-15.2188598 202.08683281 -17.61454993 200.06897245 -20 198 C-20.80824219 197.33613281 -21.61648437 196.67226562 -22.44921875 195.98828125 C-39.31105625 181.66763119 -51.0371084 161.51700078 -56 140 C-56.18328857 139.20948242 -56.36657715 138.41896484 -56.55541992 137.60449219 C-58.17073679 129.81827771 -58.34547948 122.18306424 -58.3125 114.25 C-58.31167419 113.58802612 -58.31084839 112.92605225 -58.30999756 112.24401855 C-58.28174126 102.40785106 -57.58214012 93.50983311 -55 84 C-54.58983565 82.02375358 -54.19254682 80.04475859 -53.8125 78.0625 C-53.54166667 76.70833333 -53.27083333 75.35416667 -53 74 C-53.49628906 73.63390625 -53.99257813 73.2678125 -54.50390625 72.890625 C-63.07721968 66.05800329 -69.37867873 55.94391858 -71 45 C-72.23780935 30.95774061 -70.70873817 18.85244995 -61.96875 7.31640625 C-46.3530525 -11.05682513 -19.61723401 -14.99747583 0 0 Z " fill="#6101BF" transform="translate(73,28)"/>
<path d="M0 0 C1.15252762 -0.0127597 2.30505524 -0.02551941 3.49250793 -0.03866577 C5.35959663 -0.04200424 5.35959663 -0.04200424 7.2644043 -0.04541016 C9.200196 -0.05539536 9.200196 -0.05539536 11.1750946 -0.06558228 C13.9129876 -0.07755689 16.65075455 -0.08126378 19.38867188 -0.08007812 C22.16921293 -0.07991661 24.949088 -0.09363094 27.72949219 -0.12109375 C67.75330682 -0.51086039 67.75330682 -0.51086039 81.5222168 12.39599609 C90.7909045 22.27692739 93.81524858 32.76741485 93.5222168 46.21240234 C92.58867134 57.88912959 88.514228 67.57752057 79.96362305 75.66552734 C69.79671918 84.09827704 58.08315778 85.62475393 45.23706055 85.48583984 C44.23019196 85.48300995 43.22332336 85.48018005 42.1859436 85.4772644 C39.00754303 85.46617563 35.82943673 85.44109277 32.65112305 85.41552734 C30.48055423 85.40548291 28.30998095 85.39635964 26.1394043 85.38818359 C20.8515455 85.3662735 15.56385531 85.3329107 10.27612305 85.29052734 C10.30230713 86.21800781 10.32849121 87.14548828 10.35546875 88.10107422 C10.44119321 91.57519349 10.50361064 95.0481732 10.55078125 98.52294922 C10.57577312 100.02052658 10.60977932 101.51798385 10.65332031 103.01513672 C11.08449604 118.23310371 11.08449604 118.23310371 6.6328125 123.93359375 C4.93690688 125.62980455 3.43633788 126.80447386 1.21362305 127.72802734 C0.56264648 128.01548828 -0.08833008 128.30294922 -0.7590332 128.59912109 C-5.57892906 130.29518783 -9.62598127 130.32374574 -14.72387695 130.29052734 C-14.84074666 114.48739632 -14.92888269 98.6843822 -14.98293781 82.88092613 C-15.00870521 75.54286619 -15.04382717 68.20507495 -15.10107422 60.8671875 C-15.15095472 54.47048276 -15.18317864 48.07397266 -15.19431943 41.67707884 C-15.20083054 38.29074418 -15.21610133 34.90496626 -15.25252724 31.51881027 C-15.28878111 27.73583605 -15.29382348 23.9540182 -15.29150391 20.17089844 C-15.30948029 19.05167999 -15.32745667 17.93246155 -15.34597778 16.77932739 C-15.28967683 8.30324965 -15.28967683 8.30324965 -12.43840027 4.67300415 C-8.14732672 0.90682423 -5.70414674 0.04298032 0 0 Z " fill="#EAB0A6" transform="translate(80.723876953125,62.70947265625)"/>
<path d="M0 0 C4.11864662 3.59256739 7.75633499 6.95175373 10 12 C9.14019531 12.47308594 8.28039062 12.94617188 7.39453125 13.43359375 C-13.27694285 24.92758256 -31.48003177 38.89523608 -43 60 C-43.37511719 60.67998047 -43.75023438 61.35996094 -44.13671875 62.06054688 C-46.48658043 66.34260379 -48.76710969 70.65590278 -51 75 C-61.8795797 68.04837245 -68.20872725 57.51500451 -71 45 C-71.93961075 29.59654502 -70.34431373 17.17098818 -60 5 C-44.51987992 -11.9388237 -18.24174049 -13.89106985 0 0 Z " fill="#9701FE" transform="translate(73,28)"/>
<path d="M0 0 C6.13852822 -0.06902968 12.27569894 -0.12871659 18.41430664 -0.16479492 C20.5006162 -0.17984159 22.58689433 -0.20028382 24.6730957 -0.22631836 C27.67927831 -0.26288295 30.68504112 -0.2797679 33.69140625 -0.29296875 C34.61772354 -0.30845261 35.54404083 -0.32393646 36.49842834 -0.33988953 C43.47899871 -0.34168618 48.21582922 0.72204209 53.75 5.25 C58.16275244 10.6433641 59.53729845 15.60330477 59.27734375 22.4453125 C58.6150389 28.54597971 57.28092852 33.2481787 52.625 37.4375 C46.71525107 42.17339469 41.17590028 42.2756455 33.88671875 42.1953125 C32.91716751 42.1924826 31.94761627 42.18965271 30.94868469 42.18673706 C27.86149595 42.17556991 24.77460061 42.15047152 21.6875 42.125 C19.59049899 42.11496573 17.49349342 42.10584066 15.39648438 42.09765625 C10.26411978 42.07734614 5.13238714 42.03819056 0 42 C0 28.14 0 14.28 0 0 Z " fill="#6F01CF" transform="translate(91,85)"/>
<path d="M0 0 C13.53694767 -0.84254861 24.46892908 1.18297619 35.140625 10.2578125 C43.60654279 18.19016404 48.70906425 28.62546684 49.3359375 40.26171875 C49.62338448 54.2979275 47.44628303 66.04719769 38 77 C32.9321267 82 32.9321267 82 31 82 C30.89510254 80.93640259 30.89510254 80.93640259 30.78808594 79.85131836 C27.9453064 51.66346819 21.5876996 29.04555478 4.390625 6.1875 C2.87322269 4.16429692 1.40283893 2.1042584 0 0 Z " fill="#4909A3" transform="translate(204,65)"/>
<path d="M0 0 C0 8.25 0 16.5 0 25 C8.58 25 17.16 25 26 25 C24.84100418 34.27196653 24.84100418 34.27196653 21 38 C18.23434618 38.92188461 16.61716298 39.11785222 13.76953125 39.09765625 C12.96708984 39.09443359 12.16464844 39.09121094 11.33789062 39.08789062 C10.50451172 39.07951172 9.67113281 39.07113281 8.8125 39.0625 C7.96751953 39.05798828 7.12253906 39.05347656 6.25195312 39.04882812 C4.16793845 39.03705403 2.08396023 39.0191189 0 39 C0.04640625 40.08539063 0.0928125 41.17078125 0.140625 42.2890625 C0.17816487 43.73434731 0.21456264 45.17966211 0.25 46.625 C0.30027344 47.69427734 0.30027344 47.69427734 0.3515625 48.78515625 C0.44714275 53.9942796 -0.56394693 56.86412695 -4 61 C-8.27487854 63.54181967 -10.61444405 63 -16 63 C-16 55.08 -16 47.16 -16 39 C-24.91 39 -33.82 39 -43 39 C-43 32.80505708 -42.6512315 31.59011959 -39 27 C-35.79593538 24.86395692 -35.00399253 24.75791092 -31.33203125 24.8046875 C-30.43935547 24.81113281 -29.54667969 24.81757813 -28.62695312 24.82421875 C-27.23379883 24.84935547 -27.23379883 24.84935547 -25.8125 24.875 C-24.87212891 24.88402344 -23.93175781 24.89304688 -22.96289062 24.90234375 C-20.64167032 24.92590944 -18.32096356 24.95880884 -16 25 C-16.05800781 23.75863281 -16.11601562 22.51726562 -16.17578125 21.23828125 C-16.22269238 19.59639186 -16.26819109 17.95446168 -16.3125 16.3125 C-16.35439453 15.49587891 -16.39628906 14.67925781 -16.43945312 13.83789062 C-16.52938812 9.39510212 -16.47664722 7.60406776 -13.6328125 4 C-8.74312375 0.28557768 -6.32190254 0 0 0 Z " fill="#E6ADA4" transform="translate(157,154)"/>
<path d="M0 0 C3.15333418 1.83944494 5.03625284 3.36083712 7.25 6.3125 C7.94911734 9.64478922 8.17738612 12.9128503 8.25 16.3125 C9.19875 15.8175 10.1475 15.3225 11.125 14.8125 C14.25 13.3125 14.25 13.3125 16.25 13.3125 C16.7266048 19.86581594 15.78778031 24.69977523 12.25 30.3125 C7.80125302 35.36446691 3.23472233 38.00641099 -3.546875 38.52734375 C-11.42009748 38.77215788 -16.1770327 37.6944782 -22.75 33.3125 C-22.75 32.6525 -22.75 31.9925 -22.75 31.3125 C-21.1 30.9825 -19.45 30.6525 -17.75 30.3125 C-18.36875 29.590625 -18.9875 28.86875 -19.625 28.125 C-23.61894812 22.8388922 -24.47081854 17.87350205 -24.40625 11.3359375 C-23.38882991 6.64853778 -20.69302724 4.60152119 -17.01171875 1.73828125 C-11.82001378 -1.53455521 -5.83287674 -1.45821918 0 0 Z " fill="#AB86D3" transform="translate(175.75,216.6875)"/>
<path d="M0 0 C1.80141449 0.00022659 1.80141449 0.00022659 3.63922119 0.00045776 C5.57689362 0.01594162 5.57689362 0.01594162 7.55371094 0.03173828 C8.89320667 0.03547044 10.23270514 0.03831646 11.57220459 0.04031372 C15.09036859 0.04793421 18.60836633 0.06756892 22.12646484 0.08972168 C25.71937817 0.11021435 29.31231846 0.11932274 32.90527344 0.12939453 C39.94961211 0.15081644 46.99383814 0.18493314 54.03808594 0.22705078 C54.03808594 0.55705078 54.03808594 0.88705078 54.03808594 1.22705078 C36.21808594 1.22705078 18.39808594 1.22705078 0.03808594 1.22705078 C0.36808594 2.54705078 0.69808594 3.86705078 1.03808594 5.22705078 C-0.00032326 11.15314468 -1.83898743 17.06743287 -4.96191406 22.22705078 C-5.62191406 22.55705078 -6.28191406 22.88705078 -6.96191406 23.22705078 C-7.29191406 24.21705078 -7.62191406 25.20705078 -7.96191406 26.22705078 C-8.79393845 26.75022888 -9.62596283 27.27340698 -10.48320007 27.81243896 C-13.70074415 30.94677394 -13.56900317 32.72351829 -13.6474762 37.07086182 C-13.63885056 37.99155457 -13.63022491 38.91224731 -13.62133789 39.86083984 C-13.63182159 40.83678101 -13.6423053 41.81272217 -13.65310669 42.8182373 C-13.6819031 46.04337171 -13.67555956 49.2674356 -13.66894531 52.49267578 C-13.68205751 54.72899728 -13.69736025 56.96530693 -13.71476746 59.20159912 C-13.75468588 65.08709943 -13.76481236 70.97229042 -13.76879883 76.85791016 C-13.7781173 82.8638654 -13.8155228 88.86963792 -13.85058594 94.87548828 C-13.91523163 106.65933386 -13.94841452 118.44304341 -13.96191406 130.22705078 C-14.29191406 130.22705078 -14.62191406 130.22705078 -14.96191406 130.22705078 C-15.07878377 114.42391975 -15.1669198 98.62090564 -15.22097492 82.81744957 C-15.24674232 75.47938962 -15.28186428 68.14159839 -15.33911133 60.80371094 C-15.38899183 54.4070062 -15.42121575 48.0104961 -15.43235654 41.61360228 C-15.43886765 38.22726762 -15.45413844 34.8414897 -15.49056435 31.45533371 C-15.52681822 27.67235949 -15.53186059 23.89054164 -15.52954102 20.10742188 C-15.5475174 18.98820343 -15.56549377 17.86898499 -15.58401489 16.71585083 C-15.52771394 8.23977309 -15.52771394 8.23977309 -12.67643738 4.60952759 C-8.28479398 0.75507975 -5.84625476 -0.0245641 0 0 Z " fill="#C066C3" transform="translate(80.9619140625,62.77294921875)"/>
<path d="M0 0 C0.66 0 1.32 0 2 0 C2.4766048 6.55331594 1.53778031 11.38727523 -2 17 C-6.44874698 22.05196691 -11.01527767 24.69391099 -17.796875 25.21484375 C-25.67009748 25.45965788 -30.4270327 24.3819782 -37 20 C-37 19.34 -37 18.68 -37 18 C-36.21689453 17.7071814 -36.21689453 17.7071814 -35.41796875 17.40844727 C-16.44608941 10.95216708 -16.44608941 10.95216708 0 0 Z " fill="#FEFDFE" transform="translate(190,230)"/>
<path d="M0 0 C3.34501899 2.62883104 4.03508932 5.67393178 5.1875 9.6875 C5.53167969 10.86699219 5.87585938 12.04648438 6.23046875 13.26171875 C6.48441406 14.16535156 6.73835938 15.06898438 7 16 C4 18 4 18 1 18 C0.91363281 17.33613281 0.82726562 16.67226562 0.73828125 15.98828125 C-0.18489155 10.1866907 -1.04673035 6.65598474 -6 3 C-11.08153616 1.36927929 -16.77500558 1.01686293 -21.6875 3.1875 C-22.8321875 4.0846875 -22.8321875 4.0846875 -24 5 C-25.093125 5.639375 -26.18625 6.27875 -27.3125 6.9375 C-29.56315175 8.84011282 -29.96999212 9.82769668 -30.484375 12.78125 C-30.62793712 18.58115962 -30.22943616 23.03163668 -27 28 C-26.33333333 29.33333333 -25.66666667 30.66666667 -25 32 C-26.485 32.495 -26.485 32.495 -28 33 C-32.74742954 25.69765609 -36.213093 19.97089761 -35 11 C-33.25236033 5.71929418 -30.4217183 1.41678233 -26 -2 C-17.03393472 -5.24633398 -7.88407219 -5.74880264 0 0 Z " fill="#6D1EBE" transform="translate(183,215)"/>
<path d="M0 0 C2.31 0 4.62 0 7 0 C4.36351202 11.38738426 1.67432852 20.73873474 -7 29 C-7.886875 29.928125 -8.77375 30.85625 -9.6875 31.8125 C-12 34 -12 34 -14 34 C-14.25 31.75 -14.25 31.75 -14 29 C-12.125 26.6875 -12.125 26.6875 -10 25 C-9.34 25 -8.68 25 -8 25 C-7.67 23.68 -7.34 22.36 -7 21 C-6.34 21 -5.68 21 -5 21 C-1.30239757 10.74100056 -1.30239757 10.74100056 0 0 Z " fill="#D47FBF" transform="translate(81,64)"/>
<path d="M0 0 C1.4375 2.6875 1.4375 2.6875 2 5 C2.66 5 3.32 5 4 5 C5.31626692 8.61973402 6 11.09567131 6 15 C6.66 15.33 7.32 15.66 8 16 C6.35 16.33 4.7 16.66 3 17 C2.91363281 16.33613281 2.82726562 15.67226562 2.73828125 14.98828125 C1.81510845 9.1866907 0.95326965 5.65598474 -4 2 C-9.16451164 0.34265154 -14.8681893 0.005155 -19.8125 2.3125 C-20.534375 2.869375 -21.25625 3.42625 -22 4 C-22.763125 4.556875 -23.52625 5.11375 -24.3125 5.6875 C-24.869375 6.120625 -25.42625 6.55375 -26 7 C-25.64930333 4.40484463 -25.33376494 2.47429754 -23.8125 0.3125 C-16.7243576 -4.82029277 -7.26212376 -4.29799161 0 0 Z " fill="#8647C9" transform="translate(181,216)"/>
<path d="M0 0 C-3 1 -3 1 -4.953125 0.07421875 C-5.71109375 -0.38339844 -6.4690625 -0.84101563 -7.25 -1.3125 C-16.79660027 -6.34514243 -27.96256299 -7.11377782 -38.23828125 -4.02734375 C-39.25277344 -3.66769531 -40.26726563 -3.30804687 -41.3125 -2.9375 C-46.80782918 -1 -46.80782918 -1 -49 -1 C-49 -0.34 -49 0.32 -49 1 C-50.98 1.66 -52.96 2.32 -55 3 C-42.10672745 -13.11659069 -15.44240921 -10.09542514 0 0 Z " fill="#8A24FF" transform="translate(72,27)"/>
<path d="M0 0 C0.66 0.33 1.32 0.66 2 1 C1.38511719 1.68835938 1.38511719 1.68835938 0.7578125 2.390625 C0.21898437 3.00421875 -0.31984375 3.6178125 -0.875 4.25 C-1.40867188 4.85328125 -1.94234375 5.4565625 -2.4921875 6.078125 C-5.48516241 9.89300494 -6.29266117 12.70198612 -6.3125 17.5625 C-6.32925781 18.51253906 -6.34601563 19.46257812 -6.36328125 20.44140625 C-5.9397504 23.42433855 -5.26243503 24.1174306 -3 26 C-1.25785877 28.68021728 -0.01339079 30.95982762 1 34 C-0.485 34.495 -0.485 34.495 -2 35 C-6.74742954 27.69765609 -10.213093 21.97089761 -9 13 C-7.19997829 7.5610155 -4.23728203 3.76647292 0 0 Z " fill="#5E13B3" transform="translate(157,213)"/>
<path d="M0 0 C1.32 0.33 2.64 0.66 4 1 C-1.58827634 21.20376832 -1.58827634 21.20376832 -10 29 C-10.928125 29.928125 -11.85625 30.85625 -12.8125 31.8125 C-13.534375 32.534375 -14.25625 33.25625 -15 34 C-15.66 33.67 -16.32 33.34 -17 33 C-16.195625 32.113125 -15.39125 31.22625 -14.5625 30.3125 C-6.33662781 20.55531986 -0.66939146 13.19348978 0 0 Z " fill="#E29DB1" transform="translate(84,64)"/>
<path d="M0 0 C0.33 0 0.66 0 1 0 C1.03738281 0.70125 1.07476562 1.4025 1.11328125 2.125 C1.62896023 9.56695552 2.20994707 16.69514704 8 22 C6.02 22.99 6.02 22.99 4 24 C-0.51879454 18.72807304 -2.28466141 14.78810805 -2.25 7.8125 C-2.25515625 6.76707031 -2.2603125 5.72164062 -2.265625 4.64453125 C-2 2 -2 2 0 0 Z " fill="#9160CA" transform="translate(154,223)"/>
<path d="M0 0 C0.639375 0.33 1.27875 0.66 1.9375 1 C1.9375 1.33 1.9375 1.66 1.9375 2 C1.00808594 1.91878906 0.07867187 1.83757812 -0.87890625 1.75390625 C-7.95265248 1.20704946 -7.95265248 1.20704946 -14.48046875 3.41796875 C-17.39215562 6.32965562 -19.31710337 9.27868266 -21.0625 13 C-21.77910708 7.02827429 -21.77910708 7.02827429 -19.83203125 4.234375 C-14.20015903 -1.49483823 -7.62946818 -2.49125492 0 0 Z " fill="#A273D5" transform="translate(176.0625,217)"/>
<path d="M0 0 C0 0.99 0 1.98 0 3 C-2.16015625 5.015625 -2.16015625 5.015625 -5.0625 7.25 C-9.70063842 10.91137283 -13.95048008 14.70170411 -18 19 C-18 16 -18 16 -16.7578125 14.53515625 C-16.21898437 14.04917969 -15.68015625 13.56320313 -15.125 13.0625 C-13.28228964 11.32287833 -12.07770758 10.15541517 -10.9375 7.875 C-8.75396777 3.50793554 -4.43409619 1.52026155 0 0 Z " fill="#6D03CC" transform="translate(197,70)"/>
<path d="M0 0 C3.73566943 1.24522314 4.11151327 2.82501905 5.8984375 6.16015625 C7.52734939 8.88078569 9.68330876 10.85706061 12 13 C13.33333333 14.33333333 14.66666667 15.66666667 16 17 C15.67 17.66 15.34 18.32 15 19 C8.43742097 13.77910379 3.74963606 8.54338549 0 1 C0 0.67 0 0.34 0 0 Z " fill="#8B1DFE" transform="translate(6,84)"/>
<path d="M0 0 C1.33333333 0.66666667 2.66666667 1.33333333 4 2 C5.051875 2.37125 5.051875 2.37125 6.125 2.75 C8.94659663 4.63106442 9.22777155 6.78238144 10 10 C10 11.32 10 12.64 10 14 C10.66 14.33 11.32 14.66 12 15 C10.35 15.33 8.7 15.66 7 16 C6.91363281 15.34773437 6.82726562 14.69546875 6.73828125 14.0234375 C5.74641149 7.85382562 4.42933725 4.42933725 0 0 Z " fill="#8F53CD" transform="translate(177,217)"/>
<path d="M0 0 C0.33 0 0.66 0 1 0 C1.3125 2.1875 1.3125 2.1875 1 5 C-1.3125 7.5 -1.3125 7.5 -4 10 C-6.01585408 12.95178633 -7.3479478 15.47891813 -8 19 C-8.66 19 -9.32 19 -10 19 C-9.48692579 14.24879227 -8.19842679 11.21759043 -5.5625 7.25 C-4.94503906 6.30640625 -4.32757812 5.3628125 -3.69140625 4.390625 C-2 2 -2 2 0 0 Z " fill="#911EFF" transform="translate(14,32)"/>
<path d="M0 0 C0.66 0 1.32 0 2 0 C1.125 3.875 1.125 3.875 0 5 C-0.23427778 7.01594582 -0.41336124 9.038474 -0.5625 11.0625 C-0.68818359 12.71958984 -0.68818359 12.71958984 -0.81640625 14.41015625 C-0.87699219 15.26480469 -0.93757812 16.11945313 -1 17 C-1.66 16.67 -2.32 16.34 -3 16 C-3.5683665 3.98010109 -3.5683665 3.98010109 0 0 Z " fill="#702EBC" transform="translate(153,220)"/>
<path d="M0 0 C0 4.74632515 -2.51150103 8.33723774 -5.6015625 11.7890625 C-7.03679858 13.22429858 -8.51503313 14.61628087 -10 16 C-10.66 15.67 -11.32 15.34 -12 15 C-11.13375 14.01 -10.2675 13.02 -9.375 12 C-6.05802459 8.13809292 -3.00716738 4.10552994 0 0 Z " fill="#DC91B6" transform="translate(79,82)"/>
<path d="M0 0 C9.64062772 -0.46837058 17.09349655 -0.14772718 26 4 C25.01 4.66 24.02 5.32 23 6 C22.0925 5.525625 21.185 5.05125 20.25 4.5625 C15.50977036 2.28354344 11.49773289 1.8048413 6.25 1.4375 C5.07953125 1.35371094 3.9090625 1.26992187 2.703125 1.18359375 C1.81109375 1.12300781 0.9190625 1.06242187 0 1 C0 0.67 0 0.34 0 0 Z " fill="#421C9F" transform="translate(204,65)"/>
<path d="M0 0 C0 0.99 0 1.98 0 3 C-0.886875 3.433125 -1.77375 3.86625 -2.6875 4.3125 C-5.54429455 5.76784817 -8.27396863 7.31627474 -11 9 C-9.74355639 5.23066918 -8.21492096 4.26505795 -5 2 C-2.1875 0.75 -2.1875 0.75 0 0 Z " fill="#7802DA" transform="translate(197,70)"/>
<path d="M0 0 C2.94885691 2.94885691 4.6842806 6.0528418 6 10 C5.01 10.33 4.02 10.66 3 11 C0 4.5 0 4.5 0 0 Z " fill="#6D2EB8" transform="translate(152,237)"/>
<path d="M0 0 C0.33 0 0.66 0 1 0 C1.32712342 6.13053511 1.39366878 10.62669111 -2 16 C-2.625 14.1875 -2.625 14.1875 -3 12 C-2.34 11.01 -1.68 10.02 -1 9 C-0.54605448 6.72087062 -0.54605448 6.72087062 -0.375 4.3125 C-0.30023438 3.50425781 -0.22546875 2.69601563 -0.1484375 1.86328125 C-0.09945312 1.24839844 -0.05046875 0.63351563 0 0 Z " fill="#DB8DB8" transform="translate(83,64)"/>
<path d="M0 0 C0.66 0.33 1.32 0.66 2 1 C2 1.99 2 2.98 2 4 C-3.75 5 -3.75 5 -6 5 C-6 4.34 -6 3.68 -6 3 C-5.195625 2.690625 -4.39125 2.38125 -3.5625 2.0625 C-1.10919595 1.23664655 -1.10919595 1.23664655 0 0 Z " fill="#7B02DC" transform="translate(205,67)"/>
<path d="M0 0 C1.8871875 0.0309375 1.8871875 0.0309375 3.8125 0.0625 C3.4825 0.7225 3.1525 1.3825 2.8125 2.0625 C0.82104914 2.35632062 -1.17286906 2.64238001 -3.17578125 2.84375 C-5.24576513 3.06883563 -7.18892737 3.47958298 -9.1875 4.0625 C-6.53873473 0.0893521 -4.49238456 -0.07364565 0 0 Z " fill="#9017FF" transform="translate(38.1875,19.9375)"/>
</svg>
