<svg viewBox="0 0 180 180" xmlns="http://www.w3.org/2000/svg" xmlns:xlink="http://www.w3.org/1999/xlink" width="180.000000" height="180.000000" fill="none" clip-path="url(#clipPath_0)" customFrame="url(#clipPath_0)">
	<defs>
		<linearGradient id="paint_linear_0" x1="0" x2="167.634659" y1="13.4525375" y2="191.633423" gradientUnits="userSpaceOnUse">
			<stop stop-color="rgb(58,134,255)" offset="0" stop-opacity="1" />
			<stop stop-color="rgb(37,99,235)" offset="1" stop-opacity="1" />
		</linearGradient>
		<clipPath id="clipPath_0">
			<rect width="180.000000" height="180.000000" x="0.000000" y="0.000000" rx="39.000000" fill="rgb(255,255,255)" />
		</clipPath>
		<linearGradient id="paint_linear_1" x1="90.000061" x2="90.000061" y1="107.121704" y2="144.12793" gradientUnits="userSpaceOnUse">
			<stop stop-color="rgb(249,115,22)" offset="0" stop-opacity="1" />
			<stop stop-color="rgb(234,108,10)" offset="1" stop-opacity="1" />
		</linearGradient>
	</defs>
	<rect id="Frame 2" width="180.000000" height="180.000000" x="0.000000" y="0.000000" rx="39.000000" fill="url(#paint_linear_0)" />
	<path id="" d="M22.0203 78.014Q18.8621 78.014 18.8621 74.085L18.8621 30.7349Q18.8621 27.0316 22.1707 27.0316Q23.9002 27.0316 24.577 28.1219Q25.2537 29.1934 25.2537 31.8065L25.2537 34.1187L24.0882 32.5772Q26.5133 29.9266 30.2166 28.761Q33.9388 27.5767 38.7889 27.5767L41.026 27.5767Q48.4139 27.5767 52.7564 28.9302Q57.1178 30.2838 58.9976 33.3856Q60.8963 36.4686 60.8963 41.751L60.8963 49.8345Q60.8963 55.0982 58.9976 58.2Q57.1178 61.3018 52.8316 62.6553Q48.5455 64.0089 41.2703 64.0089L25.3289 64.0089L25.3289 74.085Q25.3289 78.014 22.0203 78.014ZM25.3289 57.5421L41.2703 57.5421Q46.9664 57.5421 49.7674 56.9781Q52.5872 56.4141 53.5084 54.7034Q54.4295 52.9927 54.4295 49.6089L54.4295 41.9766Q54.4295 38.5552 53.4896 36.8633Q52.5496 35.1714 49.6734 34.6075Q46.7972 34.0435 41.026 34.0435L38.7889 34.0435Q31.8333 34.0435 28.5811 36.8821Q25.3289 39.702 25.3289 45.68L25.3289 57.5421ZM89.3074 64.0089Q81.9194 64.0089 77.5393 62.6741Q73.178 61.3394 71.2605 58.2564Q69.3618 55.1546 69.3618 49.8345L69.3618 41.751Q69.3618 36.431 71.2605 33.3292Q73.178 30.2274 77.5393 28.9114Q81.9194 27.5767 89.3074 27.5767L91.5444 27.5767Q98.9324 27.5767 103.275 28.9302Q107.636 30.2838 109.516 33.3856Q111.415 36.4686 111.415 41.751L111.415 45.9056L75.8286 45.9056L75.8286 49.6089Q75.8286 52.9927 76.7685 54.7034Q77.7273 56.4141 80.6035 56.9781Q83.4985 57.5421 89.3074 57.5421L101.169 57.5421Q102.974 57.5421 103.576 56.8841Q104.177 56.2261 104.177 54.2899Q104.177 52.3724 105.042 51.3008Q105.907 50.2105 107.448 50.2105Q109.027 50.2481 109.836 51.3948Q110.644 52.5228 110.644 54.6094Q110.644 57.8052 109.666 59.9107Q108.708 61.9974 106.715 63.0125Q104.741 64.0089 101.715 64.0089L89.3074 64.0089ZM75.8662 39.4388L104.91 39.4388Q104.478 36.055 102.166 35.1339Q100.775 34.5887 98.0676 34.3255Q95.3606 34.0435 91.5444 34.0435L89.3074 34.0435Q85.1528 34.0435 82.427 34.3443Q79.72 34.6263 78.4604 35.209Q76.1482 36.1678 75.8662 39.4388ZM123.813 64.5352Q120.579 64.5352 120.579 60.8506L120.579 30.8101Q120.579 27.0316 123.643 27.0316Q125.542 27.0316 126.971 29.0054L141.201 48.951L155.526 29.0054Q156.917 27.0316 158.76 27.0316Q161.918 27.0316 161.918 30.8101L161.918 60.8506Q161.918 64.5352 158.684 64.5352Q155.451 64.5352 155.451 60.6063L155.451 38.1981L143.702 54.9102Q142.95 56.0005 141.371 56.0005Q140.637 56.0005 139.923 55.775Q139.209 55.5306 138.776 54.9102L127.046 38.1981L127.046 60.6063Q127.046 64.5352 123.813 64.5352Z" fill="rgb(238,244,255)" fill-rule="nonzero" />
	<path id="" d="M58.6762 162.867Q54.27 162.867 54.27 158.555L54.27 124.851L40.4418 124.851Q35.7309 124.851 35.7309 120.82Q35.7309 116.789 40.4418 116.789L77.0278 116.789Q81.7153 116.789 81.7153 120.82Q81.7153 124.851 77.0278 124.851L63.2934 124.851L63.2934 158.555Q63.2934 160.523 62.0278 161.695Q60.7856 162.867 58.6762 162.867ZM113.013 162.211Q103.802 162.211 98.3414 160.547Q92.9039 158.883 90.5133 155.039Q88.1461 151.172 88.1461 144.539L88.1461 134.461Q88.1461 127.828 90.5133 123.961Q92.9039 120.094 98.3414 118.453Q103.802 116.789 113.013 116.789L115.802 116.789Q125.013 116.789 130.427 118.476Q135.865 120.164 138.209 124.031Q140.576 127.875 140.576 134.461L140.576 144.539Q140.576 151.101 138.209 154.969Q135.865 158.836 130.427 160.523Q125.013 162.211 115.802 162.211L113.013 162.211ZM113.013 154.148L115.802 154.148Q122.998 154.148 126.56 153.445Q130.146 152.742 131.318 150.609Q132.513 148.476 132.513 144.258L132.513 134.742Q132.513 130.476 131.318 128.367Q130.146 126.258 126.56 125.555Q122.998 124.851 115.802 124.851L113.013 124.851Q105.771 124.851 102.162 125.555Q98.5758 126.258 97.3805 128.367Q96.2086 130.476 96.2086 134.742L96.2086 144.258Q96.2086 148.476 97.3805 150.609Q98.5758 152.742 102.162 153.445Q105.771 154.148 113.013 154.148Z" fill="url(#paint_linear_1)" fill-rule="nonzero" />
	<path id="" d="M81.4236 106.031Q79.7419 106.031 79.7419 104.069L79.7419 80.896Q79.7419 78.894 81.4736 78.894Q83.1953 78.894 83.1953 81.0261L83.1953 99.9045L97.4993 79.9351Q98.28 78.894 99.261 78.894Q100.903 78.894 100.903 80.896L100.903 104.069Q100.903 106.031 99.1809 106.031Q97.4592 106.031 97.4592 104.189L97.4592 85.0601L83.3154 104.909Q82.825 105.6 82.4646 105.81Q82.1042 106.031 81.4236 106.031Z" fill="rgb(238,244,255)" fill-rule="nonzero" />
</svg>
