<svg xmlns="http://www.w3.org/2000/svg" width="112" height="48" viewBox="0 0 112 48" fill="none">
<g id="Frame 2087327209">
<rect width="112" height="48" rx="6" fill="#F7F7FB"/>
<g id="Group">
<path id="Vector" d="M23 15.0029H29.19C29.7527 15.0029 31.4409 14.8155 32.1912 17.44C32.754 19.1273 33.5043 21.7518 34.6297 25.6887H35.0049C36.1303 21.5644 37.0682 18.7523 37.4434 17.44C38.1937 14.8155 40.0694 15.0029 40.8197 15.0029H46.6346V33H40.6321V22.3142H40.257L37.0682 33H32.5664L29.3776 22.3142H28.8149V33H23M49.0731 15.0029H55.0755V25.6887H55.6382L59.5773 16.8776C60.3276 15.1904 62.0158 15.0029 62.0158 15.0029H67.6431V33H61.6407V22.3142H61.2655L57.3264 31.1253C56.5761 32.8125 54.7003 33 54.7003 33H49.0731M75.7089 27.5634V33H70.0816V23.6265H88.464C87.7137 25.8762 85.0877 27.5634 82.0864 27.5634" fill="#0F754E"/>
<path id="Vector_2" d="M88.8398 22.5027C89.5901 19.1282 87.3392 15.0039 82.4622 15.0039H69.707C70.0822 18.9408 73.4586 22.5027 77.0225 22.5027" fill="url(#paint0_linear_804_4358)"/>
</g>
</g>
<defs>
<linearGradient id="paint0_linear_804_4358" x1="86.5889" y1="18.7562" x2="71.5828" y2="18.7562" gradientUnits="userSpaceOnUse">
<stop stop-color="#1F5CD7"/>
<stop offset="1" stop-color="#02AEFF"/>
</linearGradient>
</defs>
</svg>