<svg xmlns="http://www.w3.org/2000/svg" width="112" height="48" viewBox="0 0 112 48" fill="none">
<g id="Frame 2087327211">
<rect width="112" height="48" rx="6" fill="#F7F7FB"/>
<g id="logo">
<path id="Vector" d="M74.3524 20.4145V27.6383H76.8724V22.5424H79.2803V27.6383H81.7443V20.4145H74.3524ZM69.6486 20.0225H71.9445L73.1205 17.8945H69.4246C66.7366 17.9505 64.9447 20.2465 64.9447 23.1024C64.9447 26.4623 66.8486 27.8063 69.1446 27.8063C71.4965 27.8063 73.2325 26.2943 73.1765 24.2224C73.1205 22.5984 71.7765 21.0305 69.9846 21.0305C68.9766 21.0305 68.0246 21.3664 67.4086 21.9824C67.4646 20.8065 68.4726 20.0225 69.6486 20.0225ZM69.0326 22.8784C69.9285 22.8784 70.5445 23.6064 70.5445 24.4464C70.5445 25.2864 69.8726 25.9583 68.9766 25.9583C68.3046 25.9583 67.5206 25.3424 67.5206 24.4464C67.5206 23.6064 68.1926 22.8784 69.0326 22.8784ZM60.9688 22.3184C62.0327 22.2624 62.9287 22.8784 62.9287 22.8784L63.8807 21.1985C63.0407 20.5825 62.2007 20.2465 61.0808 20.2465C58.6168 20.2465 56.8809 22.2624 56.8809 23.9984C56.8809 26.0703 58.7288 27.8063 61.0248 27.8063C62.0327 27.8063 63.0407 27.4703 63.8247 26.8543L62.9287 25.1184C62.9287 25.1184 62.0887 25.6783 60.9688 25.6783C60.2408 25.6783 59.2888 25.0624 59.2888 23.9984C59.2888 22.9344 60.2408 22.3184 60.9688 22.3184Z" fill="#1B0A40"/>
<path id="Vector_2" d="M36.9998 24L33.3599 26.1279L30 32.0078L43.8317 24H36.9998Z" fill="#874691"/>
<path id="Vector_3" d="M47.4709 17.9521L43.831 20.0801L40.415 25.96L54.2467 17.9521H47.4709Z" fill="#DA1844"/>
<path id="Vector_4" d="M43.831 15.8799L40.415 10V37.9993L43.831 32.1195V15.8799Z" fill="#F9B229"/>
<path id="Vector_5" d="M40.415 10L43.831 15.8799L47.4709 17.9518H54.3027L40.415 10Z" fill="#F07F1A"/>
<path id="Vector_6" d="M40.415 22.04V37.9997L43.831 32.1198V27.9199L40.415 22.04Z" fill="#72B22C"/>
<path id="Vector_7" d="M47.4709 30.0479L43.831 32.1198L40.415 37.9997L54.2467 30.0479H47.4709Z" fill="#00743E"/>
<path id="Vector_8" d="M30 16.0479V32.0075L33.4159 26.1276V21.8717L30 16.0479Z" fill="#5F5A94"/>
<path id="Vector_9" d="M40.4158 22.0397L30 16.0479L33.4159 21.8717L47.4716 30.0475H54.3034L40.4158 22.0397Z" fill="#0D90CD"/>
</g>
</g>
</svg>