<svg xmlns="http://www.w3.org/2000/svg" width="112" height="48" viewBox="0 0 112 48" fill="none">
<g id="Frame 2087327208">
<rect width="112" height="48" rx="6" fill="#F7F7FB"/>
<g id="ya_pay____ 1">
<g id="Clip path group">
<mask id="mask0_804_4343" style="mask-type:luminance" maskUnits="userSpaceOnUse" x="21" y="12" width="70" height="24">
<g id="a">
<path id="Vector" d="M21 12H90.3334V36H21V12Z" fill="white"/>
</g>
</mask>
<g mask="url(#mask0_804_4343)">
<g id="Group">
<path id="Vector_2" fill-rule="evenodd" clip-rule="evenodd" d="M78.3334 13.1H33C26.98 13.1 22.1 17.98 22.1 24C22.1 30.02 26.98 34.9 33 34.9H78.3334C84.3534 34.9 89.2334 30.02 89.2334 24C89.2334 17.98 84.3534 13.1 78.3334 13.1ZM33 12C26.3727 12 21 17.3727 21 24C21 30.6273 26.3727 36 33 36H78.3334C84.9607 36 90.3334 30.6273 90.3334 24C90.3334 17.3727 84.9607 12 78.3334 12H33Z" fill="black"/>
<path id="Vector_3" fill-rule="evenodd" clip-rule="evenodd" d="M57.8146 19.4743V23.2063H59.4346C59.9266 23.2176 60.3512 23.1503 60.7086 23.0276C61.0552 22.9043 61.3346 22.7036 61.5132 22.4243C61.6919 22.1443 61.7932 21.7756 61.7932 21.3176C61.7932 20.6923 61.6139 20.2336 61.2452 19.9323C60.8879 19.6303 60.3066 19.4743 59.5352 19.4743H57.8152H57.8146ZM57.8146 28.6036V24.905H59.4239C60.4072 24.905 61.2566 24.7816 61.9379 24.547C62.6199 24.3123 63.1559 23.9323 63.5359 23.407C63.9159 22.8823 64.1059 22.1896 64.1059 21.3176C64.1059 20.1443 63.7259 19.2616 62.9546 18.6803C62.1839 18.0883 61.0106 17.7976 59.4346 17.7976H55.5459V28.6036H57.8146ZM73.3026 27.641V27.643C73.3139 27.9556 73.3472 28.2796 73.3806 28.603L71.2026 28.6036C71.1698 28.4889 71.14 28.3733 71.1132 28.257C71.0679 28.1123 71.0459 27.967 71.0232 27.8216H70.9452C70.7465 27.9773 70.5373 28.1191 70.3192 28.2463C70.0846 28.3916 69.7946 28.503 69.4479 28.581C69.1012 28.671 68.6766 28.7156 68.1852 28.7156C67.3139 28.7156 66.6206 28.503 66.0952 28.0783C65.5706 27.6536 65.3132 27.0503 65.3132 26.2796C65.3132 25.665 65.4919 25.173 65.8386 24.793C66.1852 24.413 66.7319 24.123 67.4586 23.955C68.1852 23.7876 69.1459 23.687 70.3086 23.687H71.0232V23.3736C71.0232 23.1056 70.9566 22.8823 70.8112 22.7036C70.6659 22.525 70.4646 22.4016 70.1852 22.335C69.9059 22.2683 69.5819 22.2343 69.1799 22.2343C68.7666 22.2343 68.3532 22.2676 67.9279 22.3343C67.5039 22.4016 67.1239 22.491 66.7879 22.603C66.504 22.693 66.2276 22.8051 65.9612 22.9383V21.3183C66.3079 21.139 66.7879 20.983 67.4032 20.8596C68.0179 20.7256 68.7219 20.6696 69.5259 20.6696C70.3752 20.6696 71.0792 20.7476 71.6272 20.927C72.1739 21.0943 72.5879 21.385 72.8672 21.787C73.1472 22.1896 73.2806 22.7256 73.2806 23.385V26.693C73.2806 27.0163 73.2912 27.3283 73.3026 27.641ZM71.0339 25.0056H70.3639C69.6932 25.0056 69.1572 25.039 68.7546 25.117C68.3519 25.1956 68.0612 25.3183 67.8826 25.4863C67.7039 25.665 67.6146 25.8996 67.6146 26.201C67.6146 26.4243 67.6706 26.6256 67.7712 26.7823C67.8712 26.939 68.0392 27.0616 68.2512 27.151C68.4639 27.2403 68.7432 27.2963 69.0779 27.2963C69.5252 27.2963 69.9052 27.2183 70.2406 27.073C70.5646 26.9276 70.8332 26.7263 71.0452 26.4696V25.0056H71.0339ZM75.8952 29.185V30.805C76.3086 30.9503 76.7439 31.0176 77.2019 31.0063C77.6719 31.0063 78.0966 30.9503 78.4426 30.8496C78.7918 30.7526 79.1159 30.5811 79.3926 30.347C79.6849 30.0973 79.9408 29.8078 80.1526 29.487C80.3759 29.1403 80.5886 28.7376 80.7892 28.257L83.9519 20.7816H81.8059L79.5192 26.6383L77.0792 20.7816H74.7326L78.3192 28.7816C78.2714 28.8591 78.2193 28.9339 78.1632 29.0056C78.0406 29.1623 77.8839 29.2856 77.7052 29.3636C77.5266 29.4416 77.3032 29.4756 77.0346 29.4756C76.7779 29.4756 76.5652 29.453 76.3866 29.397C76.2123 29.3537 76.0463 29.2821 75.8952 29.185ZM50.0706 24.097C50.0706 21.8983 49.3019 19.8376 48.1032 18.1103L48.8206 17.6123C50.1026 19.461 50.9432 21.6916 50.9432 24.097C50.9432 26.419 50.1726 28.569 48.9706 30.3836L48.2432 29.901C49.3659 28.207 50.0706 26.2223 50.0706 24.097ZM46.9305 24.1416C46.9305 22.3963 46.3492 20.789 45.3759 19.4983L46.0725 18.973C47.1971 20.4613 47.8046 22.2762 47.8026 24.1416C47.8026 25.9656 47.2372 27.651 46.2592 29.0416L45.5452 28.539C46.451 27.252 46.9355 25.7154 46.9305 24.1416ZM42.8799 20.7603C43.6203 21.6794 44.0411 22.8148 44.0787 23.9945C44.1162 25.1742 43.7684 26.334 43.0879 27.2983L43.8012 27.8016C44.5908 26.6827 44.9945 25.337 44.9512 23.9681C44.9079 22.5993 44.42 21.2818 43.5612 20.215L42.8799 20.7603Z" fill="black"/>
<g id="Clip path group_2">
<mask id="mask1_804_4343" style="mask-type:luminance" maskUnits="userSpaceOnUse" x="25" y="16" width="16" height="16">
<g id="b">
<path id="Vector_4" d="M40.3346 24.0013C40.3346 19.9512 37.0514 16.668 33.0013 16.668C28.9512 16.668 25.668 19.9512 25.668 24.0013C25.668 28.0514 28.9512 31.3346 33.0013 31.3346C37.0514 31.3346 40.3346 28.0514 40.3346 24.0013Z" fill="white"/>
</g>
</mask>
<g mask="url(#mask1_804_4343)">
<g id="Group_2">
<path id="Vector_5" fill-rule="evenodd" clip-rule="evenodd" d="M40.3346 16.668H25.668V31.3346H40.3346V16.668ZM35.5666 28.4086H34.0346V20.7986H33.3513C32.098 20.7986 31.4393 21.432 31.4393 22.3686C31.4393 23.4326 31.8946 23.9266 32.832 24.5593L33.604 25.0786L31.376 28.4086H29.7173L31.7173 25.4333C30.5653 24.61 29.92 23.8126 29.92 22.4573C29.92 20.7606 31.0973 19.6086 33.3386 19.6086H35.5666V28.4086Z" fill="#FF4833"/>
</g>
</g>
</g>
</g>
</g>
</g>
</g>
</g>
</svg>