<?xml version="1.0" encoding="utf-8"?><svg xmlns="http://www.w3.org/2000/svg" xmlns:xlink="http://www.w3.org/1999/xlink"><symbol fill="none" viewBox="0 0 112 48" id="account" xmlns="http://www.w3.org/2000/svg">
  <rect width="112" height="48" rx="6" fill="#F7F7FB"/>
  <circle cx="34.5" cy="24.5" fill="#2DBF60" r="11.5"/>
  <path d="M31.456 23.925a1.212 1.212 0 0 0-1.729.222 1.284 1.284 0 0 0 .216 1.772l3.631 2.893 6.314-6.47a1.285 1.285 0 0 0 0-1.785 1.211 1.211 0 0 0-1.742 0l-4.776 4.894-1.914-1.526Z" fill="#fff"/>
  <path fill-rule="evenodd" clip-rule="evenodd" d="M52.972 28.567c.76.643 1.805.964 3.137.964.83 0 1.573-.135 2.23-.405.656-.27 1.176-.662 1.558-1.174.382-.512.582-1.118.6-1.817a.274.274 0 0 0-.09-.21.309.309 0 0 0-.217-.083h-1.984c-.13 0-.229.025-.294.077-.065.05-.116.146-.153.286-.122.447-.32.764-.594.95-.275.187-.627.28-1.056.28-1.052 0-1.597-.587-1.635-1.761a37.4 37.4 0 0 1-.014-1.188c0-.522.005-.908.014-1.16.038-1.174.583-1.76 1.635-1.76.438 0 .79.09 1.056.272.265.181.463.5.594.957.046.14.1.235.16.286.06.052.156.077.287.077h1.984a.309.309 0 0 0 .217-.084.274.274 0 0 0 .09-.21c-.018-.698-.218-1.304-.6-1.816s-.902-.904-1.558-1.174c-.657-.27-1.4-.405-2.23-.405-1.313 0-2.355.328-3.123.985-.769.657-1.176 1.59-1.223 2.802-.01.261-.014.68-.014 1.258 0 .568.005.978.014 1.23.047 1.239.45 2.18 1.209 2.823Zm14.27.726c.07.065.156.098.259.098h1.9a.365.365 0 0 0 .26-.098.329.329 0 0 0 .104-.252v-9.084a.329.329 0 0 0-.105-.252.365.365 0 0 0-.258-.097H67.5a.365.365 0 0 0-.259.097.329.329 0 0 0-.104.252v3.466c0 .27-.152.47-.455.6-.302.131-.64.197-1.013.197-.512 0-.88-.105-1.104-.315-.224-.21-.335-.543-.335-1v-2.948a.329.329 0 0 0-.105-.252.365.365 0 0 0-.259-.097h-1.9a.365.365 0 0 0-.259.097.329.329 0 0 0-.105.252v3.075c0 1.21.289 2.112.867 2.704.577.592 1.462.887 2.655.887.41 0 .797-.044 1.16-.132.363-.089.648-.222.853-.399v2.95c0 .102.034.185.104.25Zm4.855.098a.336.336 0 0 1-.245-.105.335.335 0 0 1-.105-.245v-9.07c0-.102.033-.189.098-.259a.329.329 0 0 1 .252-.104h6.596a.35.35 0 0 1 .259.104c.07.07.105.157.105.259v1.384a.328.328 0 0 1-.105.251.364.364 0 0 1-.259.098h-4.416v1.775h4.109c.102 0 .189.035.258.105.07.07.105.156.105.258v1.272a.351.351 0 0 1-.105.259.351.351 0 0 1-.258.104h-4.109v1.817h4.528c.103 0 .189.035.259.105.07.07.105.156.105.259v1.383a.33.33 0 0 1-.105.252.365.365 0 0 1-.259.098h-6.708Zm10.88-.098c.07.065.157.098.26.098h1.942a.365.365 0 0 0 .258-.098.329.329 0 0 0 .105-.252v-7.155h2.46a.365.365 0 0 0 .258-.098.329.329 0 0 0 .105-.252v-1.565a.351.351 0 0 0-.105-.259.351.351 0 0 0-.258-.104h-7.589a.351.351 0 0 0-.258.104.351.351 0 0 0-.105.259v1.565c0 .103.035.187.105.252.07.065.156.098.258.098h2.46v7.155c0 .103.035.186.105.252Z" fill="#393939"/>
</symbol><symbol viewBox="0 0 67.22 36.31" id="arrow-b" xmlns="http://www.w3.org/2000/svg">
  <g data-name="Слой 2">
    <g data-name="Слой 3">
      <path d="M65.39 0c-5.59 5.33-5.78 5.39-8 7.51L37.63 26.09a5.86 5.86 0 0 1-8 0L9.87 7.51c-2.26-2.12-2.45-2-8-7.51a5.86 5.86 0 0 0 0 8.52l27.72 26.19a5.86 5.86 0 0 0 8 0l27.8-26.19a5.86 5.86 0 0 0 0-8.52z" data-name="112.svg"/>
    </g>
  </g>
</symbol><symbol fill="#fff" viewBox="0 0 67.22 36.31" id="arrow-t" xmlns="http://www.w3.org/2000/svg">
  <g data-name="Слой 2">
    <g data-name="Слой 3">
      <path d="M65.39 0c-5.59 5.33-5.78 5.39-8 7.51L37.63 26.09a5.86 5.86 0 0 1-8 0L9.87 7.51c-2.26-2.12-2.45-2-8-7.51a5.86 5.86 0 0 0 0 8.52l27.72 26.19a5.86 5.86 0 0 0 8 0l27.8-26.19a5.86 5.86 0 0 0 0-8.52z" data-name="112.svg"/>
    </g>
  </g>
</symbol><symbol viewBox="0 0 21 21" style="enable-background:new 0 0 512 512" xml:space="preserve" fill-rule="evenodd" id="check" xmlns="http://www.w3.org/2000/svg">
  <path fill="#00BA00" d="M10.504 1.318a9.189 9.189 0 0 1 0 18.375 9.189 9.189 0 0 1 0-18.375zM8.596 13.49l-2.25-2.252a.986.986 0 0 1 0-1.392.988.988 0 0 1 1.393 0l1.585 1.587 3.945-3.945a.986.986 0 0 1 1.392 0 .987.987 0 0 1 0 1.392l-4.642 4.642a.987.987 0 0 1-1.423-.032z" data-original="#00ba00"/>
</symbol><symbol fill="currentColor" viewBox="0 0 16 16" id="close" xmlns="http://www.w3.org/2000/svg">
  <path d="m1 1 14 14m0-14L1 15" stroke="currentColor" stroke-width="2" stroke-linecap="round" stroke-linejoin="round"/>
</symbol><symbol fill="none" clip-path="url(#fa)" viewBox="0 0 180 180" id="logo" xmlns="http://www.w3.org/2000/svg">
  <defs>
    <linearGradient id="fb" x1="0" x2="167.635" y1="13.453" y2="191.633" gradientUnits="userSpaceOnUse">
      <stop stop-color="#3A86FF" offset="0"/>
      <stop stop-color="#2563EB" offset="1"/>
    </linearGradient>
    <linearGradient id="fc" x1="90" x2="90" y1="107.122" y2="144.128" gradientUnits="userSpaceOnUse">
      <stop stop-color="#F97316" offset="0"/>
      <stop stop-color="#EA6C0A" offset="1"/>
    </linearGradient>
    <clipPath id="fa">
      <rect width="180" height="180" rx="39" fill="#FFF"/>
    </clipPath>
  </defs>
  <rect width="180" height="180" rx="39" fill="url(#fb)"/>
  <path d="M22.02 78.014q-3.158 0-3.158-3.929v-43.35q0-3.703 3.309-3.703 1.73 0 2.406 1.09.677 1.071.677 3.684v2.313l-1.166-1.542q2.425-2.65 6.129-3.816 3.722-1.184 8.572-1.184h2.237q7.388 0 11.73 1.353 4.362 1.354 6.242 4.456 1.898 3.083 1.898 8.365v8.084q0 5.263-1.898 8.365-1.88 3.102-6.166 4.455-4.287 1.354-11.562 1.354H25.33v10.076q0 3.929-3.309 3.929Zm3.309-20.472H41.27q5.696 0 8.497-.564 2.82-.564 3.741-2.275.921-1.71.921-5.094v-7.632q0-3.422-.94-5.114-.94-1.692-3.816-2.255-2.876-.564-8.647-.564h-2.237q-6.956 0-10.208 2.838-3.252 2.82-3.252 8.798v11.862Zm63.978 6.467q-7.388 0-11.768-1.335-4.361-1.335-6.279-4.418-1.898-3.101-1.898-8.422v-8.083q0-5.32 1.898-8.422 1.918-3.102 6.28-4.418 4.38-1.334 11.767-1.334h2.237q7.388 0 11.731 1.353 4.361 1.354 6.241 4.456 1.899 3.083 1.899 8.365v4.155H75.829v3.703q0 3.384.94 5.094.958 1.711 3.834 2.275 2.896.564 8.704.564h11.862q1.805 0 2.407-.658.601-.658.601-2.594 0-1.918.865-2.99.865-1.09 2.406-1.09 1.579.038 2.388 1.185.808 1.128.808 3.214 0 3.196-.978 5.302-.958 2.086-2.951 3.102-1.974.996-5 .996H89.307Zm-13.44-24.57h29.043q-.432-3.384-2.744-4.305-1.391-.545-4.098-.809-2.707-.282-6.524-.282h-2.237q-4.154 0-6.88.301-2.707.282-3.967.865-2.312.959-2.594 4.23Zm47.946 25.096q-3.234 0-3.234-3.684V30.81q0-3.78 3.064-3.78 1.899 0 3.328 1.974l14.23 19.946 14.325-19.946q1.391-1.973 3.234-1.973 3.158 0 3.158 3.778v30.04q0 3.685-3.234 3.685-3.233 0-3.233-3.929V38.198L143.702 54.91Q142.95 56 141.371 56q-.734 0-1.448-.225-.714-.244-1.147-.865l-11.73-16.712v22.408q0 3.93-3.233 3.93Z" fill="#EEF4FF"/>
  <path d="M58.676 162.867q-4.406 0-4.406-4.312v-33.704H40.442q-4.711 0-4.711-4.031t4.71-4.031h36.587q4.687 0 4.687 4.031t-4.687 4.031H63.293v33.704q0 1.968-1.265 3.14-1.242 1.172-3.352 1.172Zm54.337-.656q-9.211 0-14.672-1.664-5.437-1.664-7.828-5.508-2.367-3.867-2.367-10.5v-10.078q0-6.633 2.367-10.5 2.39-3.867 7.828-5.508 5.461-1.664 14.672-1.664h2.789q9.211 0 14.625 1.687 5.438 1.688 7.782 5.555 2.367 3.844 2.367 10.43v10.078q0 6.562-2.367 10.43-2.344 3.867-7.782 5.554-5.414 1.688-14.625 1.688h-2.789Zm0-8.063h2.789q7.196 0 10.758-.703 3.586-.703 4.758-2.836 1.195-2.133 1.195-6.351v-9.516q0-4.266-1.195-6.375-1.172-2.109-4.758-2.812-3.562-.704-10.758-.704h-2.789q-7.242 0-10.851.704-3.586.703-4.782 2.812-1.171 2.109-1.171 6.375v9.516q0 4.218 1.171 6.351 1.196 2.133 4.782 2.836 3.609.703 10.851.703Z" fill="url(#fc)"/>
  <path d="M81.424 106.031q-1.682 0-1.682-1.962V80.896q0-2.002 1.732-2.002 1.721 0 1.721 2.132v18.879L97.5 79.934q.781-1.041 1.762-1.041 1.642 0 1.642 2.002v23.173q0 1.962-1.722 1.962t-1.722-1.842V85.06L83.315 104.91q-.49.691-.85.901-.36.221-1.041.221Z" fill="#EEF4FF"/>
</symbol><symbol viewBox="0 0 34 28" id="mail" xmlns="http://www.w3.org/2000/svg">
  <g stroke-linecap="round" stroke-linejoin="round" stroke-width="2" data-name="Слой 2" fill="none" stroke="currentColor">
    <rect x="1" y="1" width="32" height="26" rx="4"/>
    <path d="M2.18 2.18 17 18 31.82 2.18m-.1 23.72L20.08 14.92m-6.16 0L2.28 25.9"/>
  </g>
</symbol><symbol fill="none" viewBox="0 0 112 48" id="mastercard" xmlns="http://www.w3.org/2000/svg">
  <rect width="112" height="48" rx="6" fill="#F7F7FB"/>
  <path d="M43.395 39.93v-2.124c0-.812-.49-1.344-1.332-1.344-.42 0-.878.14-1.192.602-.245-.388-.596-.602-1.123-.602-.351 0-.702.107-.98.495v-.425h-.735v3.398h.735v-1.877c0-.602.315-.886.805-.886.49 0 .735.317.735.886v1.877h.735v-1.877c0-.602.35-.886.804-.886.49 0 .735.317.735.886v1.877h.813Zm10.902-3.398h-1.192v-1.027h-.735v1.027h-.666v.672h.666v1.559c0 .78.314 1.237 1.155 1.237.315 0 .666-.107.91-.248l-.212-.639c-.212.14-.457.178-.633.178-.35 0-.49-.215-.49-.565v-1.522h1.193v-.672h.004Zm6.239-.074a.994.994 0 0 0-.878.494v-.424h-.735v3.398h.735v-1.914c0-.565.245-.886.702-.886.14 0 .315.037.458.07l.212-.71c-.147-.028-.355-.028-.494-.028Zm-9.428.354c-.351-.247-.841-.354-1.368-.354-.841 0-1.4.424-1.4 1.096 0 .565.42.887 1.155.99l.351.037c.384.07.596.178.596.355 0 .247-.282.425-.772.425-.49 0-.877-.178-1.122-.355l-.352.565c.384.285.911.425 1.438.425.98 0 1.543-.462 1.543-1.097 0-.602-.457-.92-1.155-1.027l-.352-.037c-.314-.037-.559-.107-.559-.318 0-.247.245-.387.633-.387.42 0 .841.177 1.053.284l.31-.602Zm19.554-.354a.994.994 0 0 0-.877.494v-.424h-.735v3.398h.735v-1.914c0-.565.245-.886.702-.886.139 0 .314.037.457.07l.212-.701c-.142-.037-.35-.037-.494-.037Zm-9.391 1.773c0 1.027.702 1.769 1.788 1.769.49 0 .842-.107 1.193-.388l-.351-.602c-.282.215-.56.318-.878.318-.596 0-1.017-.425-1.017-1.097 0-.64.42-1.064 1.017-1.097.314 0 .596.107.878.317l.35-.602c-.35-.284-.702-.387-1.192-.387-1.086-.004-1.788.742-1.788 1.769Zm6.799 0v-1.7h-.735v.426c-.245-.318-.596-.495-1.054-.495-.947 0-1.682.742-1.682 1.769S65.334 40 66.28 40c.49 0 .841-.178 1.054-.495v.425h.735v-1.7Zm-2.7 0c0-.602.384-1.097 1.017-1.097.597 0 1.017.462 1.017 1.097 0 .602-.42 1.097-1.017 1.097-.629-.037-1.016-.5-1.016-1.097Zm-8.795-1.773c-.98 0-1.682.709-1.682 1.769 0 1.064.702 1.769 1.719 1.769.49 0 .98-.14 1.368-.462l-.351-.532c-.282.214-.633.355-.98.355-.458 0-.91-.215-1.017-.813h2.487v-.284c.032-1.093-.6-1.802-1.544-1.802Zm0 .639c.458 0 .772.284.841.812h-1.751c.07-.458.383-.812.91-.812Zm18.26 1.134v-3.044h-.734v1.77c-.245-.318-.597-.495-1.054-.495-.947 0-1.682.742-1.682 1.769S72.1 40 73.047 40c.49 0 .841-.178 1.054-.495v.425h.735v-1.7Zm-2.698 0c0-.602.383-1.097 1.016-1.097.596 0 1.017.462 1.017 1.097 0 .602-.42 1.097-1.017 1.097-.633-.037-1.017-.5-1.017-1.097Zm-24.606 0v-1.7h-.735v.426c-.245-.318-.596-.495-1.054-.495-.947 0-1.682.742-1.682 1.769S44.795 40 45.742 40c.49 0 .842-.178 1.054-.495v.425h.735v-1.7Zm-2.732 0c0-.602.384-1.097 1.017-1.097.596 0 1.017.462 1.017 1.097 0 .602-.421 1.097-1.017 1.097-.633-.037-1.017-.5-1.017-1.097Z" fill="#000"/>
  <path d="M61.904 10.726h-11.04v20.032h11.04V10.727Z" fill="#FF5A00"/>
  <path d="M51.598 20.742c0-4.07 1.895-7.682 4.802-10.016A12.472 12.472 0 0 0 48.617 8C41.643 8 36 13.699 36 20.742c0 7.043 5.643 12.742 12.617 12.742 2.944 0 5.643-1.026 7.783-2.725-2.911-2.301-4.802-5.947-4.802-10.017Z" fill="#EB001B"/>
  <path d="M76.8 20.742c0 7.043-5.643 12.742-12.617 12.742A12.472 12.472 0 0 1 56.4 30.76c2.944-2.338 4.802-5.947 4.802-10.017 0-4.07-1.894-7.682-4.802-10.016A12.452 12.452 0 0 1 64.18 8C71.157 8 76.8 13.736 76.8 20.742Z" fill="#F79E1B"/>
</symbol><symbol fill="none" viewBox="0 0 48 48" id="menu-burger" xmlns="http://www.w3.org/2000/svg">
  <rect width="48" height="48" rx="24" fill="#F5F5F5"/>
  <path d="M15.75 24h16.5m-16.5-5.5h16.5m-11 11h11" stroke="#2B2D33" stroke-width="2" stroke-linecap="round" stroke-linejoin="round"/>
</symbol><symbol fill="none" viewBox="0 0 112 48" id="mir" xmlns="http://www.w3.org/2000/svg">
  <rect width="112" height="48" rx="6" fill="#F7F7FB"/>
  <path d="M23 15.003h6.19c.563 0 2.25-.188 3.001 2.437.563 1.687 1.313 4.312 2.439 8.249h.375c1.125-4.125 2.063-6.937 2.438-8.249.75-2.625 2.626-2.437 3.377-2.437h5.815V33h-6.003V22.314h-.375L37.068 33h-4.502l-3.188-10.686h-.563V33H23m26.073-17.997h6.002v10.686h.563l3.94-8.811c.75-1.688 2.438-1.875 2.438-1.875h5.627V33h-6.002V22.314h-.375l-3.94 8.811C56.576 32.813 54.7 33 54.7 33h-5.627m26.636-5.437V33h-5.627v-9.373h18.382c-.75 2.25-3.376 3.936-6.378 3.936" fill="#0F754E"/>
  <path d="M88.84 22.503c.75-3.375-1.5-7.5-6.378-7.5H69.707c.375 3.938 3.752 7.5 7.316 7.5" fill="url(#ja)"/>
  <defs>
    <linearGradient id="ja" x1="86.589" y1="18.756" x2="71.583" y2="18.756" gradientUnits="userSpaceOnUse">
      <stop stop-color="#1F5CD7"/>
      <stop offset="1" stop-color="#02AEFF"/>
    </linearGradient>
  </defs>
</symbol><symbol fill="currentColor" viewBox="0 0 14.5 26.84" id="next" xmlns="http://www.w3.org/2000/svg">
  <g data-name="Слой 2">
    <g data-name="Слой 7">
      <path d="M13.86 11.81 3.4.73a2.35 2.35 0 0 0-3.4 0C2.13 3 2.15 3 3 3.94l7.41 7.87a2.34 2.34 0 0 1 0 3.21L3 22.89c-.85.91-.81 1-3 3.21a2.33 2.33 0 0 0 3.4 0L13.86 15a2.34 2.34 0 0 0 0-3.19z" data-name="112.svg" class="kpath-i94adbg0w"/>
    </g>
  </g>
</symbol><symbol viewBox="0 0 233.19 153.5" id="noctics" xmlns="http://www.w3.org/2000/svg">
  <g data-name="Слой 2">
    <path d="M102.57 51.31a50.34 50.34 0 0 1-.43 6.4 46.94 46.94 0 0 1-2.64 11.08v.11l-5.21 10.33-37.06 74.27-21.68-10.75 20.17-40.4a41 41 0 0 1-4.46.22 51.29 51.29 0 1 1 51.31-51.26zm130.62 0a50.34 50.34 0 0 1-.43 6.4 46.92 46.92 0 0 1-2.63 11.08l-.06.11-5.16 10.33-37.06 74.27-21.67-10.75 20.17-40.4a41.17 41.17 0 0 1-4.47.22 51.29 51.29 0 1 1 51.31-51.26z" data-name="‘лой_1"/>
  </g>
</symbol><symbol viewBox="0 0 34 34" id="phone" xmlns="http://www.w3.org/2000/svg">
  <g data-name="Слой 2">
    <g data-name="Incoming Call" stroke-linecap="round" stroke-linejoin="round" stroke-width="2" fill="none" stroke="currentColor">
      <path d="M29 33h-4A24 24 0 0 1 1 9V5a4 4 0 0 1 4-4h6l2 8-4 2h0a14 14 0 0 0 14 14h0l2-4 8 2v6a4 4 0 0 1-4 4zm4-32L21 13" class="mpath-in1dsjwhz"/>
      <path d="M21 1v12h12" class="mpath-ik8rtk7va"/>
    </g>
  </g>
</symbol><symbol fill="currentColor" viewBox="0 0 14.5 26.84" id="prev" xmlns="http://www.w3.org/2000/svg">
  <g data-name="Слой 2">
    <g data-name="Слой 7">
      <path d="M4.08 15a2.33 2.33 0 0 1 0-3.2l7.42-7.86c.85-.9.81-1 3-3.21a2.36 2.36 0 0 0-3.41 0L.64 11.81a2.34 2.34 0 0 0 0 3.19l10.45 11.1a2.33 2.33 0 0 0 3.4 0c-2.13-2.23-2.15-2.3-3-3.21z" data-name="112.svg" class="npath-i0t1r3siu"/>
    </g>
  </g>
</symbol><symbol fill="none" viewBox="0 0 112 48" id="sbp" xmlns="http://www.w3.org/2000/svg">
  <rect width="112" height="48" rx="6" fill="#F7F7FB"/>
  <path d="M74.352 20.415v7.223h2.52v-5.096h2.408v5.096h2.464v-7.224h-7.392Zm-4.703-.392h2.296l1.176-2.128h-3.696c-2.688.056-4.48 2.352-4.48 5.207 0 3.36 1.904 4.704 4.2 4.704 2.352 0 4.088-1.512 4.032-3.584-.056-1.624-1.4-3.192-3.192-3.192-1.008 0-1.96.336-2.576.952.056-1.175 1.064-1.96 2.24-1.96Zm-.616 2.855c.895 0 1.511.728 1.511 1.568 0 .84-.671 1.512-1.567 1.512-.672 0-1.456-.616-1.456-1.512 0-.84.672-1.568 1.512-1.568Zm-8.064-.56c1.064-.056 1.96.56 1.96.56l.952-1.68c-.84-.616-1.68-.951-2.8-.951-2.464 0-4.2 2.015-4.2 3.751 0 2.072 1.848 3.808 4.144 3.808a4.572 4.572 0 0 0 2.8-.952l-.896-1.736s-.84.56-1.96.56c-.728 0-1.68-.616-1.68-1.68s.952-1.68 1.68-1.68Z" fill="#1B0A40"/>
  <path d="m37 24-3.64 2.128-3.36 5.88L43.832 24H37Z" fill="#874691"/>
  <path d="m47.47 17.952-3.639 2.128-3.416 5.88 13.832-8.008H47.47Z" fill="#DA1844"/>
  <path d="M43.831 15.88 40.415 10v28l3.416-5.88V15.88Z" fill="#F9B229"/>
  <path d="m40.415 10 3.416 5.88 3.64 2.072h6.832L40.415 10Z" fill="#F07F1A"/>
  <path d="M40.415 22.04V38l3.416-5.88v-4.2l-3.416-5.88Z" fill="#72B22C"/>
  <path d="m47.47 30.048-3.639 2.072L40.415 38l13.832-7.952H47.47Z" fill="#00743E"/>
  <path d="M30 16.048v15.96l3.416-5.88v-4.256L30 16.048Z" fill="#5F5A94"/>
  <path d="M40.416 22.04 30 16.048l3.416 5.824 14.056 8.175h6.831L40.416 22.04Z" fill="#0D90CD"/>
</symbol><symbol viewBox="0 0 24 23.99" id="support" xmlns="http://www.w3.org/2000/svg">
  <g data-name="Слой 2">
    <g data-name="Слой 6" fill="#FFF">
      <path d="M6.08 16.65a1.28 1.28 0 0 1-1.28-1.28V13a1.28 1.28 0 1 1 2.56 0v2.4a1.28 1.28 0 0 1-1.28 1.25zm0-4.24a.55.55 0 0 0-.55.56v2.4a.55.55 0 0 0 .55.55.55.55 0 0 0 .55-.55V13a.56.56 0 0 0-.55-.59zm11.85 4.24a1.29 1.29 0 0 1-1.28-1.28V13a1.29 1.29 0 1 1 2.57 0v2.4a1.29 1.29 0 0 1-1.29 1.25zm0-4.24a.56.56 0 0 0-.55.56v2.4a.56.56 0 0 0 1.11 0V13a.56.56 0 0 0-.56-.59z" class="ppath-ip3gkxotp"/>
      <path d="M18 12.39a.37.37 0 0 1-.37-.37A5.48 5.48 0 0 0 12 6.55 5.49 5.49 0 0 0 6.39 12a.37.37 0 0 1-.36.37.38.38 0 0 1-.37-.37A6.21 6.21 0 0 1 12 5.82 6.21 6.21 0 0 1 18.35 12a.37.37 0 0 1-.35.39zm-.56 4.91h-3.32a.37.37 0 0 1-.36-.37.36.36 0 0 1 .36-.36h3.32a.25.25 0 0 0 .2-.23.37.37 0 0 1 .73 0 1 1 0 0 1-.93.96z" class="ppath-i0wggqo5n"/>
      <path d="M13.17 18.18h-1.76a1.25 1.25 0 0 1 0-2.5h1.76a1.25 1.25 0 1 1 0 2.5zm-1.76-1.77a.52.52 0 0 0-.52.52.52.52 0 0 0 .52.52h1.76a.52.52 0 0 0 .52-.52.52.52 0 0 0-.52-.52zM.4 12.36A.37.37 0 0 1 0 12a12 12 0 0 1 22.49-5.89.37.37 0 0 1-.14.5.36.36 0 0 1-.5-.14A11.27 11.27 0 0 0 .76 12a.36.36 0 0 1-.36.36z" class="ppath-ifuuhdk6x"/>
      <path d="M23.2 8.73a13 13 0 0 0-3.41-2.6L22 6l1.61-1.52a13.15 13.15 0 0 0-.41 4.25z" class="ppath-impvqady8"/>
      <path d="m23.41 9.21-.34-.36a13.49 13.49 0 0 0-3.35-2.56L19.08 6l2.85-.18 2.07-2-.21.67a13.38 13.38 0 0 0-.41 4.2zm-3-2.94a14.18 14.18 0 0 1 2.55 2A14.39 14.39 0 0 1 23.27 5l-1.19 1.16zM12 24a12 12 0 0 1-10.48-6.15.35.35 0 0 1 .14-.49.37.37 0 0 1 .5.14 11.27 11.27 0 0 0 21.1-5.5.37.37 0 1 1 .74 0 12 12 0 0 1-12 12z" class="ppath-iw4s2jf00"/>
      <path d="M.82 15.24a13.43 13.43 0 0 0 3.39 2.61L2 18 .39 19.5a13.12 13.12 0 0 0 .43-4.26z" class="ppath-i3kf76vac"/>
      <path d="m0 20.11.21-.67a13.11 13.11 0 0 0 .42-4.2v-.49l.34.36a13.05 13.05 0 0 0 3.34 2.57l.64.31-2.85.17zm1-4.41a15 15 0 0 1-.29 3.22l1.21-1.12 1.64-.1a14.2 14.2 0 0 1-2.56-2z" class="ppath-ihy6jfzib"/>
    </g>
  </g>
</symbol><symbol fill="currentColor" viewBox="0 0 116.44 96.5" id="telegram" xmlns="http://www.w3.org/2000/svg">
  <g data-name="Слой 2">
    <path data-name="Telegram" d="M8 41.54q46.89-20.43 62.53-26.93C100.31 2.22 106.5.07 110.53 0a7.06 7.06 0 0 1 4.16 1.25 4.52 4.52 0 0 1 1.52 2.9 18.59 18.59 0 0 1 .18 4.22c-1.61 17-8.59 58.1-12.15 77.09-1.5 8-4.46 10.73-7.32 11-6.23.58-11-4.11-17-8.07C70.49 82.2 65.16 78.35 56 72.31c-10.58-7-3.72-10.81 2.31-17.08 1.58-1.64 29-26.59 29.55-28.85a2.24 2.24 0 0 0-.5-1.9 2.44 2.44 0 0 0-2.22-.21q-1.42.32-45.23 29.89-6.42 4.41-11.63 4.29c-3.83-.08-11.19-2.16-16.66-3.94C4.9 52.33-.44 51.17 0 47.47q.39-2.89 8-5.93z" fill-rule="evenodd" class="qpath-ibmnkyuzg"/>
  </g>
</symbol><symbol viewBox="0 0 512 512" style="enable-background:new 0 0 512 512" xml:space="preserve" id="user" xmlns="http://www.w3.org/2000/svg">
  <path d="M256 0c-74.439 0-135 60.561-135 135s60.561 135 135 135 135-60.561 135-135S330.439 0 256 0zm167.966 358.195C387.006 320.667 338.009 300 286 300h-60c-52.008 0-101.006 20.667-137.966 58.195C51.255 395.539 31 444.833 31 497c0 8.284 6.716 15 15 15h420c8.284 0 15-6.716 15-15 0-52.167-20.255-101.461-57.034-138.805z" fill="currentColor"/>
</symbol><symbol fill="none" viewBox="0 0 112 48" id="visa" xmlns="http://www.w3.org/2000/svg">
  <rect width="112" height="48" rx="6" fill="#F7F7FB"/>
  <path d="M65.313 14c-4.395 0-8.322 2.272-8.322 6.468 0 4.814 6.965 5.146 6.965 7.565 0 1.018-1.17 1.93-3.169 1.93-2.835 0-4.954-1.274-4.954-1.274l-.907 4.235S57.367 34 60.608 34c4.805 0 8.586-2.383 8.586-6.652 0-5.086-6.994-5.409-6.994-7.653 0-.798.96-1.671 2.953-1.671 2.248 0 4.082.926 4.082.926l.888-4.09S68.126 14 65.312 14Zm-40.206.309-.107.617s1.849.338 3.514 1.011c2.144.772 2.297 1.222 2.658 2.617l3.934 15.127h5.275l8.126-19.372h-5.262L38.023 27.48l-2.13-11.165c-.196-1.278-1.185-2.007-2.397-2.007h-8.389Zm25.516 0L46.495 33.68h5.019l4.113-19.372h-5.004Zm27.989 0c-1.21 0-1.852.646-2.322 1.775l-7.352 17.597h5.263l1.017-2.933h6.411l.62 2.933h4.643l-4.05-19.372h-4.23Zm.684 5.234 1.56 7.27h-4.179l2.62-7.27Z" fill="#1434CB"/>
</symbol><symbol viewBox="0 0 122.01 76.13" id="vk" xmlns="http://www.w3.org/2000/svg">
  <g data-name="Слой 2">
    <path data-name="VK" d="M66.45 76.13C24.77 76.13 1 47.55 0 0h20.88C21.57 34.9 37 49.69 49.15 52.74V0h19.67v30.1c12-1.29 24.69-15 29-30.1h19.67c-3.28 18.59-17 32.31-26.75 38A60.16 60.16 0 0 1 122 76.13h-21.63c-4.65-14.48-16.24-25.68-31.55-27.2v27.2z" class="tpath-i46ieh67y"/>
  </g>
</symbol><symbol fill="#fff" viewBox="0 0 511 512" style="enable-background:new 0 0 512 512" xml:space="preserve" id="whatsapp" xmlns="http://www.w3.org/2000/svg">
  <g fill="currentColor">
    <path d="M435.188 74.281C387.284 26.383 323.594 0 255.851 0 202.57 0 151.574 16.344 108.379 47.27c-4.492 3.214-5.527 9.46-2.313 13.953 3.22 4.492 9.465 5.523 13.954 2.308C159.8 35.055 206.77 20 255.852 20c128.816 0 233.617 104.8 233.617 233.621 0 128.816-104.801 233.617-233.617 233.617-39.243 0-78.051-9.918-112.23-28.683a10.026 10.026 0 0 0-7.423-.887L24.88 487.754l30.351-108.32a9.986 9.986 0 0 0-1.003-7.758C33.293 336.004 22.23 295.184 22.23 253.62c0-49.086 15.055-96.055 43.532-135.832 3.215-4.488 2.18-10.734-2.309-13.95-4.492-3.214-10.738-2.183-13.953 2.31-30.926 43.19-47.27 94.187-47.27 147.472 0 43.684 11.262 86.617 32.61 124.461L.87 499.301a10.006 10.006 0 0 0 2.524 9.738A10.02 10.02 0 0 0 10.5 512c.871 0 1.746-.113 2.61-.348l124.464-33.636c36.238 19.129 77.043 29.222 118.274 29.222 67.746 0 131.437-26.379 179.336-74.285 47.902-47.898 74.285-111.59 74.285-179.336 0-67.742-26.38-131.43-74.281-179.336zm0 0" data-original="currentColor"/>
    <path d="M419.77 374.84c4.593 3.066 10.804 1.828 13.87-2.766 23.438-35.117 35.829-76.078 35.829-118.457 0-57.062-22.219-110.71-62.563-151.054S312.918 40 255.852 40c-57.067 0-110.715 22.219-151.059 62.563S42.23 196.555 42.23 253.62c0 38.008 10.114 75.328 29.247 107.93l6.453 11-19.551 69.773a9.992 9.992 0 0 0 2.523 9.735 10.007 10.007 0 0 0 9.715 2.617l72.031-19.469 10.594 5.816c31.242 17.153 66.723 26.215 102.606 26.215 42.382 0 83.343-12.39 118.457-35.832 4.593-3.062 5.832-9.273 2.765-13.867a9.997 9.997 0 0 0-13.867-2.766c-31.816 21.239-68.937 32.465-107.355 32.465-32.528 0-64.68-8.21-92.98-23.746l-14.126-7.758a10.022 10.022 0 0 0-7.422-.886l-58.937 15.93 15.953-56.926c.73-2.618.371-5.418-1.004-7.758l-8.61-14.668C71.392 321.89 62.23 288.07 62.23 253.617 62.23 146.855 149.09 60 255.852 60c106.761 0 193.617 86.855 193.617 193.621 0 38.41-11.227 75.531-32.465 107.352-3.066 4.593-1.828 10.8 2.766 13.867zm0 0" data-original="currentColor"/>
    <path d="m219.305 222.902.66-.77c8.957-10.054 6.695-21.862 3.219-29.995-5.137-12.012-18.575-42.715-19.848-45.621-1.984-5.016-8.606-12.961-21.922-13.239-10.383-.21-13.797.082-14.594.18-.082.008-.164.02-.242.031-1.531.223-37.547 6.051-43.766 60.032-2.859 24.816 8.633 54.378 34.157 87.875 28.258 37.082 54.234 59.164 92.648 78.75 19.13 9.753 47.07 21.171 73.082 21.171.844 0 1.688-.011 2.524-.039 29.214-.851 44.816-12.992 52.757-23.027 8.43-10.652 10.192-21.148 10.446-22.969.168-1.156.574-4.804.832-14.308.36-13.317-7.266-20.309-12.18-22.532-2.777-1.378-31.41-15.574-43.148-21.265-7.926-3.848-19.578-6.043-30.067 5.336-.054.058-.105.117-.156.168-1.418 1.238-2.82 3.086-7.082 8.789-2.625 3.511-7.863 10.52-10.09 12.86-4.703.331-20.43-6.595-42.723-23.856-14.05-10.883-29.054-27.825-37.355-42.176a1.95 1.95 0 0 1-.11-.762c3.442-3.539 9.044-10.043 12.958-14.633zm12.261 73.383c6.664 5.16 19.73 14.774 32.364 21.184 5.972 3.027 24.148 12.25 35.355 2.332 3.094-2.739 7.488-8.508 13.356-16.36 1.691-2.261 3.77-5.039 4.574-6 .523-.476.957-.945 1.351-1.375 1.801-1.953 2.622-2.843 6.633-.898 12.047 5.844 42.102 20.75 43.18 21.281.371.371.95 1.578.883 3.98-.223 8.29-.547 11.286-.614 11.848-.043.207-.023.082-.046.309-.118.68-1.375 7.383-6.887 13.965-7.774 9.289-20.246 14.246-37.074 14.734-22.5.668-48.27-9.945-65.942-18.957-35.953-18.336-59.215-38.137-85.828-73.058-21.969-28.829-32.41-54.235-30.195-73.465 4.172-36.207 24.015-41.895 26.676-42.496.937-.059 4.109-.192 11.648-.036 2.402.051 3.578.688 3.934 1.075.496 1.132 14.593 33.336 19.855 45.648 2.629 6.152 1.016 7.965.238 8.836-.14.156-.261.297-.367.414l-.574.676c-5.777 6.77-9.844 11.375-12.086 13.676-7.383 7.586-6.684 18.086-2.902 24.632 9.617 16.665 26.289 35.524 42.468 48.055zM83.586 91.352c2.402 0 4.812-.86 6.727-2.602 4.085-3.715 4.39-10.04.675-14.125a10.004 10.004 0 0 0-14.129-.672l-.004.004c-4.085 3.715-4.382 10.035-.668 14.125a9.972 9.972 0 0 0 7.399 3.27zm308.848 299.519-.004.008c-3.715 4.086-3.41 10.406.675 14.121a9.952 9.952 0 0 0 6.723 2.602 9.974 9.974 0 0 0 7.402-3.278c3.72-4.086 3.415-10.41-.671-14.125s-10.41-3.414-14.125.672zm0 0" data-original="currentColor"/>
  </g>
</symbol><symbol fill="none" viewBox="0 0 112 48" id="yandex" xmlns="http://www.w3.org/2000/svg">
  <rect width="112" height="48" rx="6" fill="#F7F7FB"/>
  <mask id="va" style="mask-type:luminance" maskUnits="userSpaceOnUse" x="21" y="12" width="70" height="24">
    <path d="M21 12h69.333v24H21V12Z" fill="#fff"/>
  </mask>
  <g mask="url(#va)">
    <path fill-rule="evenodd" clip-rule="evenodd" d="M78.333 13.1H33c-6.02 0-10.9 4.88-10.9 10.9 0 6.02 4.88 10.9 10.9 10.9h45.333c6.02 0 10.9-4.88 10.9-10.9 0-6.02-4.88-10.9-10.9-10.9ZM33 12c-6.627 0-12 5.373-12 12s5.373 12 12 12h45.333c6.628 0 12-5.373 12-12s-5.372-12-12-12H33Z" fill="#000"/>
    <path fill-rule="evenodd" clip-rule="evenodd" d="M57.815 19.474v3.732h1.62c.492.012.916-.056 1.274-.178.346-.124.626-.324.804-.604.179-.28.28-.648.28-1.106 0-.626-.18-1.084-.548-1.386-.357-.302-.938-.458-1.71-.458h-1.72Zm0 9.13v-3.699h1.609c.983 0 1.833-.123 2.514-.358.682-.235 1.218-.615 1.598-1.14.38-.525.57-1.217.57-2.09 0-1.173-.38-2.055-1.151-2.637-.771-.592-1.944-.882-3.52-.882h-3.89v10.806h2.27Zm15.488-.963v.002c.01.313.044.637.078.96h-2.178a6.879 6.879 0 0 1-.09-.346c-.045-.145-.067-.29-.09-.435h-.078a5.54 5.54 0 0 1-.626.424 2.826 2.826 0 0 1-.871.335c-.347.09-.771.135-1.263.135-.871 0-1.564-.213-2.09-.638-.524-.424-.782-1.028-.782-1.798 0-.615.179-1.107.526-1.487.346-.38.893-.67 1.62-.838.726-.167 1.687-.268 2.85-.268h.714v-.313c0-.268-.066-.492-.212-.67-.145-.179-.346-.302-.626-.369s-.603-.1-1.005-.1a8.035 8.035 0 0 0-2.392.368 5.7 5.7 0 0 0-.827.335v-1.62c.347-.179.827-.335 1.442-.458.615-.134 1.319-.19 2.123-.19.85 0 1.553.078 2.101.257.547.167.96.458 1.24.86.28.403.414.939.414 1.598v3.308c0 .323.01.635.022.948Zm-2.27-2.635h-.67c-.67 0-1.206.033-1.608.111-.403.079-.694.201-.872.37-.18.178-.268.413-.268.714 0 .223.056.425.156.581.1.157.268.28.48.369.213.09.492.145.827.145.447 0 .827-.078 1.163-.223.324-.145.592-.347.804-.603v-1.464h-.011Zm4.862 4.179v1.62c.414.145.849.213 1.307.201.47 0 .895-.056 1.24-.156.35-.097.674-.269.95-.503.293-.25.549-.54.76-.86.224-.347.437-.75.637-1.23l3.163-7.475h-2.146l-2.287 5.856-2.44-5.856h-2.346l3.586 8c-.048.077-.1.152-.156.224-.122.156-.28.28-.458.358-.178.078-.402.112-.67.112-.257 0-.47-.023-.648-.079a1.64 1.64 0 0 1-.492-.212Zm-25.824-5.088c0-2.199-.77-4.26-1.968-5.987l.718-.498c1.282 1.849 2.122 4.08 2.122 6.485 0 2.322-.77 4.472-1.972 6.287l-.728-.483c1.123-1.694 1.828-3.679 1.828-5.804Zm-3.14.045a7.686 7.686 0 0 0-1.555-4.644l.697-.525a8.558 8.558 0 0 1 1.73 5.169c0 1.824-.566 3.509-1.544 4.9l-.714-.503a7.6 7.6 0 0 0 1.386-4.397ZM42.88 20.76a5.431 5.431 0 0 1 .208 6.538l.713.504a6.303 6.303 0 0 0-.24-7.587l-.681.545Z" fill="#000"/>
    <mask id="vb" style="mask-type:luminance" maskUnits="userSpaceOnUse" x="25" y="16" width="16" height="16">
      <path d="M40.335 24.001a7.333 7.333 0 1 0-14.667 0 7.333 7.333 0 0 0 14.667 0Z" fill="#fff"/>
    </mask>
    <g mask="url(#vb)">
      <path fill-rule="evenodd" clip-rule="evenodd" d="M40.335 16.668H25.668v14.667h14.667V16.668Zm-4.768 11.74h-1.532v-7.61h-.684c-1.253 0-1.912.634-1.912 1.57 0 1.065.456 1.559 1.393 2.191l.772.52-2.228 3.33h-1.659l2-2.976c-1.152-.823-1.797-1.62-1.797-2.976 0-1.696 1.177-2.848 3.419-2.848h2.228v8.8Z" fill="#FF4833"/>
    </g>
  </g>
</symbol></svg>